<?xml version="1.0" encoding="UTF-8" standalone="no"?>
<svg
   viewBox="0 0 150.00001 150"
   version="1.1"
   id="svg188889"
   sodipodi:docname="v1-round.svg"
   inkscape:version="1.2.2 (732a01da63, 2022-12-09)"
   width="150"
   height="150"
   xmlns:inkscape="http://www.inkscape.org/namespaces/inkscape"
   xmlns:sodipodi="http://sodipodi.sourceforge.net/DTD/sodipodi-0.dtd"
   xmlns="http://www.w3.org/2000/svg"
   xmlns:svg="http://www.w3.org/2000/svg">
  <defs
     id="defs188893" />
  <sodipodi:namedview
     id="namedview188891"
     pagecolor="#ffffff"
     bordercolor="#000000"
     borderopacity="0.25"
     inkscape:showpageshadow="2"
     inkscape:pageopacity="0.0"
     inkscape:pagecheckerboard="0"
     inkscape:deskcolor="#d1d1d1"
     showgrid="false"
     inkscape:zoom="2.8284271"
     inkscape:cx="29.168155"
     inkscape:cy="66.998367"
     inkscape:window-width="1920"
     inkscape:window-height="1010"
     inkscape:window-x="2993"
     inkscape:window-y="464"
     inkscape:window-maximized="1"
     inkscape:current-layer="svg188889" />
  <style
     id="style188527"><![CDATA[.B{fill:#ec7b91}.C{fill:#fdf5fc}.D{fill:#7bdcec}.E{fill:#f4f5ff}.F{fill:#2e487a}.G{opacity:.317}.H{fill:#feecf0}.I{fill:#eee6fd}.J{fill:#6d638f}.K{fill:#fdfdf5}]]></style>
  <circle
     style="fill:#e2d6e3;fill-opacity:1"
     id="path193982"
     cx="75"
     cy="75"
     r="70" />
  <g
     id="g193010"
     transform="matrix(0.45337692,0,0,0.44995868,-241.13655,-234.56077)">
    <path
       d="m 697.534,652.995 h -10e-4 l 10e-4,-4.506 -19.629,-14.357 -6.385,-3.972 c -0.178,-0.13 -0.356,-0.284 -0.585,-0.475 l -3.917,2.201 -0.054,-0.045 -3.971,2.283 c 16.201,16.513 15.692,17.246 28.517,20.339 0,-0.01 -0.004,-0.023 -0.005,-0.033 l 0.017,0.013 5.763,4.407 c 0.446,-0.635 0.251,-4.348 0.251,-5.856 z"
       fill="#d78698"
       id="path188531" />
    <path
       d="m 665.158,672.63 c 2.265,0.362 7.562,-2.332 10.008,-3.884 5.851,-4.298 11.281,-9.31 16.398,-14.353 l -1.147,-0.889 -2.013,-1.513 -0.124,-0.013 c -10.13,-7.655 -18.677,-13.758 -21.327,-15.513 -1.381,-0.914 -2.41,-1.565 -3.887,-2.316 0,0 -0.002,0.034 0,0 -2.999,1.764 -5.867,3.565 -8.46,5.463 -1.085,0.787 -2.137,1.593 -3.12,2.424 -1.619,1.367 -3.159,2.838 -4.648,4.365 l -0.037,-0.009 c -2.569,2.642 -4.932,5.502 -7.075,8.521 2.831,1.535 5.486,3.182 7.794,4.878 l 9.008,6.588 0.005,0.073 8.625,6.18 z"
       fill="#bf8f9e"
       id="path188533" />
    <path
       d="m 729.485,672.638 c -2.265,0.362 -5.577,-0.863 -11.821,-4.134 -6.151,-3.222 -10.255,-9.886 -14.558,-13.967 a 0.33,0.33 0 0 1 -0.024,-0.156 c 9.349,-10.667 17.026,-14.577 28.494,-20.225 0,0 0.002,0.034 0,0 2.999,1.764 5.867,3.565 8.46,5.463 1.085,0.787 2.137,1.593 3.12,2.424 1.619,1.367 3.159,2.838 4.648,4.365 l 0.037,-0.009 c 2.569,2.642 4.932,5.502 7.075,8.521 -2.831,1.535 -5.486,3.182 -7.794,4.878 l -9.008,6.588 -0.005,0.073 -8.625,6.18 z"
       fill="#a15f80"
       id="path188535" />
    <path
       d="m 664.786,672.727 7.735,5.181 c 14.712,2.056 19.241,-10.238 25.01,-18.866 -1.677,-1.559 -4.603,-3.784 -5.982,-4.672 -4.39,4.163 -13.602,11.114 -19.74,14.649 -2.004,1.154 -4.448,2.428 -7.023,3.708 z"
       fill="#7e96af"
       id="path188537" />
    <path
       d="m 729.785,672.687 -7.696,5.155 c -6.22,-1.355 -13.872,-3.474 -20.381,-5.986 -1.341,-5.739 -1.702,-7.821 -4.457,-13.031 2.106,-1.591 3.561,-3.022 5.68,-4.633 l 0.052,-0.04 c -0.002,0.06 0.003,0.115 0.024,0.159 4.368,4.142 13.682,11.168 19.79,14.686 1.994,1.149 4.426,2.416 6.988,3.69 z"
       fill="#6e83a6"
       id="path188539" />
    <path
       d="m 763.265,725.801 c -1.446,2.03 -3.087,4.085 -4.979,6.25 l -0.045,-0.011 -5.599,6.08 c -2.829,2.934 -6.272,5.787 -9.993,8.521 5.27,4.527 12.696,15.039 19.286,19.217 1.448,-4.56 3.713,-14.327 3.97,-18.086 0.179,-2.616 0.467,-8.32 -0.288,-12.616 -0.087,-0.493 -0.172,-0.883 -0.258,-1.327 l -0.065,-0.016 c -0.595,-3.056 -1.219,-5.225 -2.029,-8.012 z"
       fill="#377999"
       id="path188541" />
    <path
       d="m 762.775,761.666 c -5.586,5.769 -7.639,14.555 -15.578,21.555 -1.649,1.413 -3.308,3.135 -5.244,4.456 11.479,5.354 17.606,11.906 22.744,17.734 l 0.90142,0.81349 c 1.55437,-0.83088 27.93057,-20.74368 34.10258,-27.90149 -2.814,-11.222 -25.056,-13.904 -36.925,-16.657 z"
       fill="#23426c"
       id="path188543"
       sodipodi:nodetypes="ccccccsc" />
    <path
       d="m 832.188,710.944 0.36,-3.027 c 0.065,-0.446 1.319,-12.459 1.408,-16.228 -0.161,-1.577 -6.371,-1.408 -10.079,1.381 -3.708,2.789 -4.998,8.117 -4.998,8.117 3.801,4.549 7.888,8.592 13.309,9.756 z"
       class="B"
       id="path188545" />
    <path
       d="m 818.974,701.04 c -5.676,9.641 -10.997,17.674 -15.758,21.086 -4.761,3.412 -4.82,3.345 -7.046,4.485 13.397,13.685 9.221,1.205 23.247,22.921 l 3.684,-7.95 0.062,0.041 c 4.135,-9.657 7.202,-19.932 9.025,-30.717 -5.585,-1.811 -10.211,-5.368 -13.204,-9.865 l -0.008,-0.002 z m 13.214,9.866 z m 0.501,-3.162 -0.021,0.13 0.02,-0.13 z"
       fill="#3e4a7f"
       id="path188547" />
    <path
       d="m 768.553,716.945 c -1.475,3.012 -3.045,5.669 -4.854,8.276 6.723,2.82 12.707,4.934 19.046,4.911 0.862,0.042 2.352,-0.083 4.293,-0.311 l 0.003,10e-4 c 0.008,-10e-4 5.378,0.485 2.441,0.131 l 8.618,-3.779 c 0,0 -12.496,-5.048 -18.396,-5.565 -0.009,0 -0.018,10e-4 -0.027,10e-4 -1.304,-0.335 -2.572,-0.685 -3.756,-1.089 l -5.718,-1.981 0.008,0.009 -1.656,-0.603 z"
       fill="#d89bd2"
       id="path188549" />
    <path
       d="m 729.442,703.314 c -10.582,3.081 -18.594,8.511 -26.379,18.101 a 0.33,0.33 0 0 0 -0.024,0.156 l 1.143,0.869 2.013,1.513 0.124,0.013 c 10.13,7.655 18.677,13.758 21.327,15.513 1.381,0.914 2.41,1.565 3.887,2.316 0,0 0.002,-0.034 0,0 2.999,-1.764 5.867,-3.565 8.46,-5.463 1.085,-0.787 2.137,-1.593 3.12,-2.424 1.619,-1.367 3.159,-2.838 4.648,-4.365 l 0.037,0.009 c 2.569,-2.642 4.932,-5.502 7.075,-8.521 -2.831,-1.535 -5.486,-3.182 -7.794,-4.878 l -9.008,-6.588 -0.005,-0.073 -8.625,-6.18 z"
       fill="#40809c"
       id="path188551" />
    <path
       d="m 754.836,721.023 c -2.127,2.997 -4.473,5.836 -7.022,8.459 l -0.018,-0.005 c -1.494,1.536 -3.041,3.014 -4.667,4.388 -0.974,0.823 -2.015,1.621 -3.089,2.407 l 0.454,5.242 c -0.05,-0.243 -0.22,-2.279 -0.454,-5.218 -2.601,1.906 -5.48,3.714 -8.491,5.485 a 52.04,52.04 0 0 0 3.303,1.529 l 1.738,0.714 0.022,-0.015 6.208,2.553 v 0 c 3.684,-2.706 7.093,-5.531 9.893,-8.435 2.106,-2.185 3.889,-4.131 5.525,-6 l 0.017,0.004 c 1.907,-2.179 3.557,-4.244 5.011,-6.284 l -0.217,-0.767 c 0,-0.048 0.005,-0.099 0.006,-0.148 -2.808,-1.176 -5.593,-2.485 -8.22,-3.909 z"
       fill="#becce3"
       id="path188553" />
    <path
       d="m 779.669,720.594 c 4.429,1.135 9.24,2.686 11.883,3.431 2.643,0.745 4.74,1.299 5.911,1.98 2.133,-1.083 3.119,-1.836 5.325,-3.487 0.171,-0.128 0.324,-0.272 0.492,-0.402 a 4.77,4.77 0 0 1 -1.297,0.49 c -2.658,0.589 -4.545,0.695 -7.927,0.438 -3.201,-0.243 -5.179,-0.409 -7.203,-0.816 -2.024,-0.407 -4.092,-1.056 -6.267,-1.539 a 4.05,4.05 0 0 0 -0.917,-0.094 z"
       fill="#9e79a8"
       id="path188555" />
    <path
       d="m 768.93,716.159 -0.363,0.784 1.678,0.611 z"
       class="B"
       id="path188557" />
    <path
       d="m 768.605,658.993 -4.381,1.863 -2.626,1.242 -1.703,0.926 1.553,3.039 0.51,1.16 0.012,-0.012 c 2.212,5.081 3.204,10.622 3.947,16.135 0.113,3.192 0.307,6.34 0.162,9.122 -1.166,5.713 -2.247,11.694 -4.209,16.308 l -0.012,-0.014 c -0.17,0.391 -0.33,0.788 -0.516,1.174 -0.496,1.033 -1.024,2.053 -1.568,3.068 l 1.721,0.936 c 2.251,1.148 4.79,2.205 7.038,3.063 l 3.674,-8.422 c 0.972,-2.457 3.163,-10.754 3.277,-13.394 l 0.172,-3.406 c -0.026,0 -0.05,0.002 -0.076,0.002 l 0.07,-3.848 c 0.031,-2.312 -0.006,-1.284 -0.068,-4.113 l -0.17,-3.373 c -0.113,-2.614 -2.282,-10.829 -3.244,-13.262 -1.096,-2.771 -2.138,-5.171 -3.203,-7.404 l 0.004,-0.004 -0.363,-0.785 z"
       fill="#fdd1d2"
       id="path188559" />
    <path
       d="m 739.215,698.817 -6.595,3.022 0.005,0.004 -3.216,1.533 8.575,6.144 9.088,6.648 c 2.296,1.688 4.938,3.326 7.755,4.854 1.848,-2.604 3.541,-5.315 5.04,-8.112 -4.783,-2.685 -10.057,-6.475 -14.707,-9.873 l -5.944,-4.22 z"
       fill="#f2b3e4"
       id="path188561" />
    <path
       d="m 721.858,698.32 7.544,5.053 3.218,-1.534 -4.134,-2.992 -3.185,-2.945 z"
       fill="#f6d7fa"
       id="path188563" />
    <path
       d="m 697.278,688.755 v 0.03 c -4.099,-0.046 -1.922,0.235 -3.123,0.385 -3.739,0.467 -12.971,3.804 -20.875,8.776 -0.189,0.119 -0.39,0.261 -0.581,0.381 l 0.794,0.557 c 2.043,1.412 9.044,10.271 9.044,10.271 0,0 11.328,5.204 12.65,6.226 0.508,0.393 1.305,0.925 2.077,1.418 0.37,-0.135 1.592,-1.041 2.104,-1.426 1.322,-1.022 13.524,-6.351 13.524,-6.351 0,0 6.126,-8.733 8.17,-10.145 l 0.794,-0.557 c -0.19,-0.121 -0.391,-0.263 -0.581,-0.382 -7.904,-4.972 -17.135,-8.308 -20.875,-8.776 l -3.123,-0.408 z"
       fill="#6d9db8"
       id="path188565" />
    <path
       d="m 729.476,703.349 c -1.648,-0.922 -5.938,-4.018 -7.669,-5.102 l -11.414,8.642 -11.382,8.656 c -0.562,0.434 -0.88,0.726 -1.729,1.266 l 5.561,5.102 c -0.002,-0.061 0.003,-0.117 0.025,-0.16 4.412,-4.184 13.82,-11.28 19.989,-14.833 2.605,-1.464 6.62,-3.57 6.62,-3.57 z"
       fill="#4b92ac"
       id="path188567" />
    <path
       d="m 697.265,716.795 -5.787,4.714 -0.017,0.013 c 10e-4,-0.01 0.005,-0.023 0.005,-0.033 l -1.143,0.869 -2.013,1.513 1.664,-0.174 -1.628,0.171 c -10.205,7.713 -18.82,13.866 -21.489,15.632 -1.387,0.919 -2.422,1.572 -3.907,2.328 l 3.971,2.283 0.054,-0.045 3.917,2.201 c 0.229,-0.191 0.407,-0.345 0.585,-0.475 0.47,-0.342 5.207,-3.174 6.385,-3.972 2.137,-1.446 16.424,-11.99 19.603,-14.337 l 19.23,14.33 c 1.178,0.797 5.915,3.63 6.385,3.972 0.178,0.13 0.356,0.284 0.585,0.475 l 3.917,-2.202 0.054,0.045 3.971,-2.283 c -1.485,-0.756 -2.519,-1.409 -3.907,-2.328 -2.669,-1.767 -11.284,-7.919 -21.489,-15.632 l -1.628,-0.17 1.664,0.173 -2.013,-1.513 -1.143,-0.869 c 0,0.01 0.004,0.023 0.005,0.033 l -0.017,-0.013 c -2.102,-1.597 -3.717,-3.124 -5.812,-4.706 z"
       fill="#56b6c0"
       id="path188569" />
    <path
       d="m 731.588,747.371 c -1.331,-1.3 -2.961,-2.607 -3.667,-3.147 -0.258,-0.198 -0.367,-0.163 -0.328,-0.172 l -3.925,2.194 0.711,0.602 1.402,0.468 -1.615,5.099 z"
       class="C"
       id="path188571" />
    <path
       d="m 736.218,751.14 6.593,-4.55 -6.23,-2.562 -4.992,3.348 4.63,3.764 z"
       class="E"
       id="path188573" />
    <path
       d="m 731.442,794.049 3.22,-1.747 -35.056,-19.396 -2.543,-0.062 0.378,2.299 c 3.813,3.291 6.331,5.133 9.681,7.446 9.829,6.787 16.812,8.663 24.321,11.461 z"
       class="C"
       id="path188575" />
    <path
       d="m 741.971,787.517 c -0.957,0.748 -6.927,4.574 -7.498,4.914 L 731.486,794 c 2.4,0.894 4.541,1.819 7.054,3.067 l -0.036,0.019 2.784,1.467 c 5.511,3.116 10.243,7.495 14.871,11.815 0.32,0.299 0.69475,0.60231 1.06675,0.93931 2.957,-1.494 5.51828,-3.38733 8.37328,-5.08633 L 764.944,805.428 c -5.19,-5.887 -11.378,-12.503 -22.972,-17.911 z"
       fill="#9f6fa4"
       id="path188577"
       sodipodi:nodetypes="ccccccsccccc" />
    <path
       d="m 731.482,793.999 c -4.274,2.299 -8.496,4.388 -12.304,6.256 -9.031,4.431 -14.4,9.98 -15.735,11.862 -0.798,1.125 -1.334,1.948 -1.677,2.734 0.014,0 0.01,0 0.023,-0.003 -0.211,0.499 -0.357,0.989 -0.389,1.527 -0.082,1.408 0.51,2.349 1.223,3.458 0.713,1.109 1.714,2.011 3.05,2.944 1.311,0.916 3.002,1.583 4.883,2.373 15.057,0.699 35.636,-8.345 46.766,-13.896 l -0.025,-0.056 -1.087,-0.984 c -4.582,-4.277 -9.267,-8.613 -14.723,-11.698 -0.883,-0.499 -1.769,-1.024 -2.628,-1.461 h 0.002 c -0.012,-0.006 -0.025,-0.012 -0.037,-0.018 -0.04,-0.02 -0.082,-0.045 -0.122,-0.065 l -0.007,0.004 c -2.45,-1.204 -4.875,-2.106 -7.214,-2.978 z"
       fill="#23426c"
       id="path188579" />
    <path
       d="m 742.79,746.567 -6.514,4.499 -0.036,-0.029 c -13.319,8.653 -27.924,15.508 -31.87,18.476 3.335,2.448 9.85,6.661 15.425,9.364 5.575,2.703 10.261,3.776 19.574,7.667 0.961,0.402 1.879,0.814 2.773,1.231 6.904,-5.436 13.541,-11.811 17.234,-18.222 0.708,-1.215 1.299,-2.339 1.764,-3.311 0.557,-1.163 1.133,-2.772 1.695,-4.54 v 0 c -3.51,-2.049 -6.573,-4.225 -7.869,-6.142 -2.764,-4.086 -6.37,-6.13 -8.654,-7.452 -0.455,-0.264 -1.869,-0.859 -3.523,-1.54 z"
       fill="#306c8f"
       id="path188581" />
    <path
       d="m 832.716,706.54 -0.177,1.338 0.184,-1.335 z m -13.742,-5.334 -0.011,0.019 0.011,0.017 0.012,-0.018 z"
       class="B"
       id="path188583" />
    <path
       d="m 818.898,674.594 a 23.01,23.01 0 0 0 -3.091,6.897 l -0.061,0.248 c -0.458,1.729 -0.605,3.576 -0.656,5.322 l 0.042,1.345 18.913,-0.437 -0.004,-1.116 -0.014,-1.249 -0.039,-1.799 -0.205,-0.028 c -0.427,-0.081 -3.138,-0.75 -6.247,-2.212 -3.109,-1.462 -6.617,-3.717 -8.637,-6.969 z m -3.78,13.375 a 22.4,22.4 0 0 0 -0.069,0.909 c 0.003,0.82 0.048,1.636 0.139,2.447 0.003,0.013 0.003,0.027 0.005,0.04 0.372,3.493 1.903,7.281 3.664,9.979 2.021,-3.252 5.528,-5.507 8.637,-6.969 3.109,-1.462 5.82,-2.132 6.247,-2.213 0.067,-0.013 0.129,-0.015 0.205,-0.028 l 0.039,-1.799 0.015,-1.249 0.004,-1.116 z"
       fill="#9f7d9b"
       id="path188585" />
    <g
       class="B"
       id="g188591">
      <path
         d="m 833.947,690.936 -0.025,1.152 z"
         id="path188587" />
      <path
         d="m 833.972,688.067 -0.012,1.003 -0.014,1.237 -0.007,0.628 z"
         id="path188589" />
    </g>
    <path
       d="m 766.066,692.516 c -3.297,-2.678 -14.919,-5.284 -26.956,6.251 l 6.004,4.262 c 4.697,3.431 10.024,7.259 14.854,9.971 v 0 c 0.541,-1.01 1.067,-2.026 1.561,-3.054 0.184,-0.384 0.343,-0.777 0.512,-1.167 l -0.07,-0.074 c 2.21,-5.1 3.35,-10.661 4.095,-16.19 z"
       fill="#435984"
       id="path188593" />
    <path
       d="m 765.907,683.36 c -11.623,1.781 -20.222,-0.021 -26.766,-6.175 l 6.004,-4.262 c 4.697,-3.431 10.024,-7.259 14.854,-9.971 v 0 c 0.541,1.01 1.067,2.026 1.561,3.054 0.184,0.384 0.343,0.777 0.512,1.167 l -0.07,0.074 c 2.21,5.1 3.16,10.585 3.905,16.114 z"
       fill="#4f4172"
       id="path188595" />
    <path
       d="m 739.255,677.119 c -3.641,2.529 -7.355,5.01 -10.479,6.935 -2.12,1.306 -4.904,2.688 -7.419,3.873 h -0.217 l 0.109,0.052 -0.067,0.032 h 0.133 c 2.515,1.185 5.3,2.568 7.42,3.873 3.124,1.924 6.839,4.405 10.479,6.935 3.37,-1.442 6.335,-2.571 8.154,-3.046 0.532,-0.139 1.208,-0.27 1.83,-0.405 l 0.035,0.036 c 5.783,-1.022 11.43,-2.223 16.822,-2.825 l 0.11,-0.754 c 0.244,-1.859 0.215,-2.522 0.18,-3.886 -0.035,-1.364 -0.286,-3.428 -0.435,-4.622 -0.444,-0.05 -0.763,-0.049 -1.126,-0.109 -6.895,-0.813 -13.688,-2.134 -17.373,-3.041 -3.685,-0.907 -4.785,-1.605 -8.155,-3.047 z"
       fill="#2d4072"
       id="path188597" />
    <path
       d="m 697.064,727.434 v 0.322 l -19.174,14.022 -6.353,3.952 c -0.177,0.129 -0.421,0.334 -0.648,0.524 5.946,3.273 12.026,6.562 17.434,10.249 3.033,2.068 5.403,3.557 8.738,6.542 v 0.377 l 0.212,-0.188 0.221,0.196 v -0.393 c 3.336,-2.985 5.706,-4.474 8.739,-6.542 5.408,-3.687 11.487,-6.975 17.434,-10.249 -0.228,-0.19 -0.471,-0.395 -0.649,-0.524 -0.467,-0.34 -5.181,-3.159 -6.353,-3.952 -2.091,-1.415 -15.727,-11.772 -19.19,-14.329 h 0.016 l -0.208,0.153 -0.219,-0.161 z"
       fill="#3d8ba3"
       id="path188599" />
    <g
       class="B"
       id="g188605">
      <path
         d="m 697.062,770.986 10e-4,-7.558 z"
         id="path188601" />
      <path
         d="m 697.062,772.845 h 10e-4 l -10e-4,-1.856 z"
         id="path188603" />
    </g>
    <path
       d="m 701.842,814.574 c -0.891,-1.835 -2.022,-2.041 -3.646,-2.025 l -0.801,-0.544 c -1.57,-0.026 -2.661,0.947 -4.862,2.725 0.228,0.524 0.384,1.033 0.417,1.597 0.082,1.401 -0.508,2.337 -1.217,3.44 -0.709,1.103 -1.706,2.002 -3.035,2.93 -1.305,0.911 -2.839,1.668 -4.711,2.454 4.005,0.02 8.701,0.668 13.44,0.612 v -0.006 c 4.636,0.027 9.219,-0.594 13.139,-0.613 -1.871,-0.786 -3.406,-1.543 -4.711,-2.454 -1.329,-0.928 -2.325,-1.827 -3.034,-2.93 -0.709,-1.103 -1.299,-2.04 -1.217,-3.441 0.033,-0.564 0.048,-1.167 0.276,-1.691 z"
       fill="#2e7495"
       id="path188607" />
    <path
       d="m 818.974,701.211 c 0,0 -0.012,0.052 0,0 z"
       class="D"
       id="path188609" />
    <path
       d="m 763.272,725.868 0.448,-0.63 -0.66,-0.289 -0.006,0.149 0.218,0.771 z"
       class="F G"
       id="path188611" />
    <path
       d="m 754.836,721.025 c 2.627,1.424 5.412,2.734 8.22,3.909 0.038,-3.708 0.611,-7.207 1.124,-9.853 l -2.609,-1.247 -1.696,-0.921 c -1.499,2.797 -3.192,5.508 -5.04,8.112 z"
       class="H"
       id="path188613" />
    <path
       d="m 697.322,688.764 3.013,0.387 c 3.758,0.47 13.037,3.823 20.981,8.82 0.19,0.12 0.392,0.262 0.583,0.384 l 3.461,-2.43 3.201,2.96 4.155,3.008 6.628,-3.037 c -3.659,-2.542 -7.392,-5.036 -10.532,-6.97 -2.143,-1.32 -4.961,-2.716 -7.501,-3.912 h -24.256 z"
       class="I"
       id="path188615" />
    <g
       class="D"
       id="g188621">
      <path
         d="m 697.067,770.986 v 1.856 h 10e-4 z"
         id="path188617" />
      <path
         d="m 697.069,763.425 -10e-4,7.558 z"
         id="path188619" />
    </g>
    <path
       d="m 697.137,772.845 2.475,0.061 35.056,19.396 7.43,-4.603 -2.759,-1.225 c -9.267,-3.871 -13.929,-4.939 -19.477,-7.629 -5.548,-2.69 -12.031,-6.882 -15.349,-9.318 3.926,-2.953 18.459,-9.774 31.712,-18.384 l -4.63,-3.764 -7.422,5.044 1.615,-5.099 -1.402,-0.467 -0.712,-0.603 c -5.946,3.273 -12.026,6.562 -17.434,10.249 -3.144,2.143 -5.569,3.654 -9.103,6.866 z"
       class="C"
       id="path188623" />
    <path
       d="m 763.704,725.221 -0.434,0.621 1.904,7.922 -0.07,-0.018 0.26,1.326 c 0.755,4.296 0.466,9.999 0.287,12.615 -0.258,3.759 -1.372,9.458 -2.82,14.018 4.013,2.342 8.421,4.655 11.773,6.073 4.556,1.625 11.373,2.143 15.148,2.581 3.775,0.438 7.739,3.651 9.248,7.121 0.19,0.457 0.353,0.711 0.672,0.889 6.063,-6.868 11.571,-15.174 16.227,-23.211 -6.404,-14.592 -18.613,-22.763 -32.792,-25.068 -14.179,-2.305 -12.724,-2.322 -19.397,-4.864 z"
       class="F"
       id="path188625" />
    <path
       d="m 775.537,692.112 -0.17,3.373 c -0.113,2.614 -2.281,10.828 -3.244,13.261 -1.096,2.772 -3.604,8.256 -3.604,8.256 2.499,0.972 5.27,1.789 7.403,2.516 1.201,0.409 2.487,0.763 3.811,1.103 0.297,-0.003 0.972,0.225 2.21,0.5 1.238,0.275 2.925,0.72 4.938,1.125 2.013,0.405 5.916,1.161 9.192,1.346 3.768,0.212 4.156,0.02 7.054,-1.376 2.898,-1.396 5.123,-3.702 8.63,-8.142 3.507,-4.44 5.879,-9.369 7.2,-12.839 v 0 c -13.314,-11.689 -29.2,-10.496 -42.934,-9.918"
       class="J"
       id="path188627" />
    <path
       d="m 697.371,775.081 -10e-4,0.072 c -3.738,3.219 -6.246,5.055 -9.556,7.341 -9.829,6.787 -17.188,8.742 -24.697,11.54 4.232,2.276 8.483,4.396 12.252,6.245 8.942,4.387 14.258,9.881 15.579,11.744 0.79,1.114 1.321,1.929 1.66,2.707 a 104.87,104.87 0 0 0 4.515,0.201 v 0.003 c 0.013,0 0.027,-0.003 0.04,-0.003 l 0.268,0.009 v -0.017 a 102.29,102.29 0 0 0 4.394,-0.174 c 0.339,-0.778 0.991,-1.619 1.781,-2.733 1.322,-1.863 6.638,-7.357 15.579,-11.744 l 12.253,-6.246 c -7.509,-2.798 -14.868,-4.753 -24.698,-11.54 -3.31,-2.286 -5.578,-4.137 -9.313,-7.356 v -0.026 c -0.03,-0.001 -0.042,-0.01 -0.057,-0.023 z"
       fill="#3aa9b4"
       id="path188629" />
    <path
       d="m 731.54,741.779 -3.951,2.271 4.001,3.319 4.992,-3.348 -1.738,-0.714 -3.303,-1.529 z"
       class="E"
       id="path188631" />
    <path
       d="m 562.516,711.067 -0.509,-3.144 c -0.065,-0.446 -1.319,-12.459 -1.408,-16.228 0.161,-1.577 6.371,-1.408 10.079,1.381 3.708,2.789 4.998,8.117 4.998,8.117 -2.977,4.471 -7.607,8.07 -13.16,9.873 z"
       fill="#a2ece2"
       id="path188633" />
    <path
       d="m 575.582,701.048 -0.008,10e-4 c -2.994,4.496 -7.619,8.054 -13.205,9.865 1.823,10.785 4.889,21.06 9.025,30.717 l 0.062,-0.041 c 0,0 1.697,4.195 3.653,7.731 3.112,-4.432 9.518,-13.529 17.067,-18.696 l -0.063,-0.07 c 2.099,-1.427 4.24,-2.753 6.275,-3.936 a 44.71,44.71 0 0 1 -6.55,-4.082 c -0.171,-0.128 -0.326,-0.273 -0.495,-0.403 -0.787,-0.433 -1.606,-1.133 -2.716,-2.303 l -4.258,-4.489 c -0.077,-0.081 -0.177,-0.246 -0.257,-0.357 v -0.027 l 0.387,0.409 c -3.434,-4.144 -6.154,-8.752 -8.312,-13.247 -0.178,-0.371 -0.388,-0.723 -0.603,-1.071 z m -13.212,9.866 -0.082,-0.484 0.076,0.487 z m -0.501,-3.163 0.02,0.13 h 10e-4 l -0.02,-0.13 z"
       fill="#69bac3"
       id="path188635" />
    <path
       d="m 628.643,692.529 c 10.402,-0.208 19.977,0.849 26.808,6.245 l -6.004,4.262 c -4.697,3.431 -10.024,7.259 -14.854,9.971 v 0 c -0.541,-1.01 -1.067,-2.026 -1.561,-3.054 -0.184,-0.384 -0.343,-0.777 -0.512,-1.167 l 0.07,-0.074 c -2.21,-5.1 -3.201,-10.656 -3.946,-16.184 z"
       fill="#5e93a4"
       id="path188637" />
    <path
       d="m 628.686,683.423 c 12.52,0.041 20.35,-0.163 26.808,-6.245 l -6.004,-4.262 c -4.697,-3.431 -10.024,-7.259 -14.854,-9.971 v 0 c -0.541,1.01 -1.067,2.026 -1.561,3.054 -0.184,0.384 -0.343,0.777 -0.512,1.167 l 0.07,0.074 c -2.21,5.1 -3.201,10.656 -3.946,16.184 z"
       fill="#6a7f98"
       id="path188639" />
    <path
       d="m 655.419,677.099 -8.195,3.062 c -0.535,0.14 1.099,-0.173 -1.838,0.407 -5.712,0.875 -11.436,2.188 -16.943,2.802 l -0.11,0.757 c -0.238,1.814 -0.203,2.66 -0.182,3.807 h -0.04 c -0.02,1.202 -0.064,2.038 0.181,3.906 l 0.11,0.757 c 0.447,0.05 0.956,0.093 1.32,0.154 l 15.588,2.686 c 2.565,0.519 1.318,0.226 1.874,0.37 1.829,0.478 4.808,1.613 8.195,3.062 3.659,-2.542 7.392,-5.036 10.533,-6.97 2.108,-1.298 4.868,-2.671 7.375,-3.853 h 0.299 l -0.15,-0.072 0.107,-0.051 h -0.215 c -2.507,-1.183 -5.268,-2.556 -7.376,-3.854 -3.14,-1.934 -6.874,-4.428 -10.533,-6.97 z"
       fill="#567995"
       id="path188641" />
    <path
       d="m 625.993,716.955 c 1.475,3.012 3.045,5.669 4.854,8.276 -6.173,2.529 -12.414,4.316 -17.335,4.792 a 19.18,19.18 0 0 1 -1.945,0.083 c -0.862,0.042 -2.118,-0.048 -4.059,-0.276 l -0.002,10e-4 c -3.851,-0.769 -7.781,-1.784 -10.274,-3.912 6.65,-1.128 12.612,-3.147 17.613,-5.301 0.009,0 0.018,10e-4 0.027,10e-4 1.304,-0.335 2.572,-0.685 3.756,-1.089 l 5.718,-1.981 -0.008,0.009 1.656,-0.603 z"
       fill="#f0fde7"
       id="path188643" />
    <path
       d="m 631.512,724.939 -0.657,0.288 c -1.809,-2.607 -3.379,-5.264 -4.854,-8.276 l 4.386,-1.865 c 0.514,2.646 1.087,6.145 1.124,9.853 z"
       class="K"
       id="path188645" />
    <path
       d="m 639.732,721.03 c 2.127,2.997 4.473,5.836 7.022,8.459 l 0.018,-0.005 c 1.494,1.536 3.041,3.014 4.667,4.388 0.974,0.823 2.015,1.621 3.089,2.407 l -0.454,5.242 c 0.05,-0.243 0.22,-2.279 0.454,-5.218 2.601,1.906 5.48,3.714 8.491,5.485 a 52.04,52.04 0 0 1 -3.303,1.529 l -1.738,0.714 -0.022,-0.015 -6.208,2.553 v 0 c -3.684,-2.706 -7.093,-5.531 -9.893,-8.435 -2.107,-2.185 -3.889,-4.131 -5.526,-6 l -0.017,0.004 c -1.907,-2.179 -3.557,-4.244 -5.011,-6.284 l 0.217,-0.767 c 0,-0.048 -0.005,-0.099 -0.006,-0.148 2.808,-1.176 5.593,-2.485 8.22,-3.909 z"
       fill="#b5fcfc"
       id="path188647" />
    <path
       d="m 631.293,725.856 c 1.439,2.02 3.071,4.064 4.954,6.219 l 0.045,-0.011 5.57,6.05 c 2.814,2.919 6.24,5.758 9.942,8.478 -9.787,3.476 -10.992,13.268 -20.146,15.21 -10.074,-14.332 -13.393,-22.622 -0.365,-35.945 z"
       fill="#55aab6"
       id="path188649" />
    <path
       d="m 651.768,746.592 6.514,4.499 0.036,-0.029 c 13.319,8.653 27.924,15.508 31.87,18.476 -3.335,2.448 -9.85,6.661 -15.425,9.364 -5.575,2.703 -10.261,3.776 -19.574,7.667 -0.961,0.402 -1.879,0.814 -2.773,1.231 -1.936,-1.321 -3.622,-2.896 -5.436,-4.091 -21.657,-18.745 -9.565,-4.143 -15.257,-21.982 3.477,-0.66 5.971,-3.34 7.87,-6.142 2.764,-4.086 6.37,-6.13 8.654,-7.452 0.455,-0.264 1.869,-0.859 3.523,-1.54 z"
       fill="#4489a1"
       id="path188651" />
    <path
       d="m 631.783,761.691 c -15.318,7.982 -23.703,4.04 -32.986,12.165 -1.608,1.137 -2.807,2.424 -3.329,3.68 -0.191,0.459 -0.85,0.534 -0.61,0.812 l 0.209,0.24 c 0.413,0.476 0.65,0.806 1.047,1.252 l -0.003,0.003 0.052,0.056 c 0.011,0.013 0.017,0.021 0.029,0.034 h 0.002 c 9.557,10.502 20.603,19.495 32.622,26.675 2.826,1.688 2.84,1.668 0.014,-0.015 l 1.034,-1.156 c 5.139,-5.828 11.265,-12.379 22.744,-17.733 -1.936,-1.321 -3.787,-2.679 -5.436,-4.091 -5.911,-5.064 -9.601,-10.089 -11.912,-14.04 a 45.47,45.47 0 0 1 -1.772,-3.317 c -0.559,-1.169 -1.139,-2.786 -1.703,-4.563 z"
       fill="#365f7e"
       id="path188653" />
    <path
       d="m 578.732,755.988 0.677,-0.932 c 1.19,-1.487 3.564,-5.879 3.819,-5.752 -0.303,0.486 -0.276,0.297 -0.502,0.866 -0.105,0.27 -0.007,1.841 0.087,2.444 0.127,0.814 0.516,2.643 1.316,4.017 2.581,4.434 6.939,8.733 13.68,11.301 4.638,1.766 5.217,1.592 7.872,2.246 -3.047,0.654 -4.598,2.091 -6.806,3.652 -1.6,1.132 -2.794,2.411 -3.312,3.662 -0.19,0.457 -0.351,0.71 -0.671,0.888 0.446,0.505 0.445,0.505 -0.001,0 -6.063,-6.868 -11.504,-14.352 -16.16,-22.39"
       fill="#7cb1c4"
       id="path188655" />
    <path
       d="m 597.154,725.939 c 4.693,2.851 6.959,3.171 9.075,3.541 2.116,0.37 3.452,0.454 5.176,0.634 -10.955,3.514 -21.251,10.545 -27.439,18.219 -0.004,0 0.007,0.075 0.004,0.074 -0.256,-0.128 -3.375,5.195 -4.571,6.689 -0.284,0.355 -0.449,0.616 -0.68,0.936 -1.248,-2.157 -3.601,-6.642 -4.736,-8.876 1.795,-3.049 15.781,-21.284 23.17,-21.217 z"
       fill="#7ef4f2"
       id="path188657" />
    <path
       d="m 630.854,725.226 0.445,0.627 -2.021,7.986 0.069,-0.017 -0.257,1.32 c -0.751,4.274 -0.465,9.949 -0.287,12.552 0.609,4.864 1.777,10.201 2.969,14.003 -3.992,2.331 -8.543,4.578 -11.878,5.988 -4.396,1.84 -9.185,2.409 -13.897,2.529 -0.914,-0.058 -3.519,-0.454 -8.18,-2.229 -6.776,-2.581 -11.155,-6.901 -13.749,-11.357 -0.804,-1.381 -1.194,-3.219 -1.322,-4.037 -0.095,-0.606 -0.193,-2.185 -0.087,-2.456 9.232,-13.241 19.628,-19.157 28.547,-19.991 8.919,-0.834 13.475,-2.388 19.648,-4.917 z"
       fill="#4b8098"
       id="path188659" />
    <path
       d="m 588.64,719.872 c -1.512,-1.396 -2.921,-2.882 -4.216,-4.445 z"
       class="B"
       id="path188661" />
    <path
       d="m 591.356,722.173 c -0.795,-0.438 -1.605,-1.161 -2.743,-2.326 z"
       class="J"
       id="path188663" />
    <path
       d="m 614.823,720.623 c -5.815,2.447 -11.621,4.42 -17.575,5.409 -2.122,-1.078 -3.232,-1.852 -5.428,-3.495 -0.17,-0.127 -0.323,-0.27 -0.49,-0.4 0.415,0.228 0.828,0.385 1.291,0.487 2.644,0.586 4.522,0.691 7.887,0.436 3.185,-0.242 5.153,-0.407 7.166,-0.812 2.013,-0.405 4.072,-1.051 6.235,-1.531 a 4.03,4.03 0 0 1 0.913,-0.094 z"
       fill="#e7e0cc"
       id="path188665" />
    <path
       d="m 610.369,692.072 h -6.829 c -5.992,-0.042 -12.663,1.147 -16.912,2.634 -4.249,1.487 -9.677,5.672 -11.038,6.533 a 11.65,11.65 0 0 1 0.597,1.061 c 2.058,4.287 4.639,8.673 7.864,12.657 -0.01,0.005 -0.017,0.018 -0.017,0.053 2.397,3.075 3.182,3.572 4.599,4.85 0.86,0.794 1.754,1.556 2.689,2.28 0.415,0.228 0.829,0.385 1.291,0.487 2.644,0.586 4.522,0.691 7.887,0.436 3.185,-0.242 5.153,-0.407 7.166,-0.812 2.013,-0.405 4.072,-1.051 6.235,-1.531 a 4.03,4.03 0 0 1 0.913,-0.094 c 1.324,-0.339 2.61,-0.693 3.811,-1.103 l 5.69,-1.971 1.315,-1.395 c -1.065,-2.234 -2.11,-4.633 -3.206,-7.405 -0.962,-2.433 -3.13,-10.647 -3.243,-13.261 l -0.17,-3.373 v -0.001 l -8.642,-0.046 z m 15.268,24.094 -1.315,1.395 1.678,-0.611 c -0.122,-0.249 -0.242,-0.53 -0.363,-0.784 z"
       fill="#90c7c1"
       id="path188667" />
    <path
       d="m 655.343,698.825 6.595,3.022 -0.005,0.004 3.216,1.533 -8.575,6.144 -9.088,6.648 c -2.296,1.688 -4.938,3.326 -7.755,4.854 -1.848,-2.604 -3.541,-5.315 -5.04,-8.112 4.783,-2.685 10.057,-6.475 14.707,-9.873 l 5.944,-4.22 z"
       fill="#edfdea"
       id="path188669" />
    <path
       d="m 672.7,698.327 -7.544,5.053 -3.218,-1.534 4.134,-2.992 3.185,-2.945 z"
       fill="#f6d7fa"
       id="path188671" />
    <path
       d="m 662.968,747.371 c 1.331,-1.3 2.961,-2.607 3.667,-3.147 0.258,-0.198 0.367,-0.163 0.328,-0.172 l 3.925,2.194 -0.711,0.602 -1.402,0.468 1.615,5.099 z"
       class="C"
       id="path188673" />
    <path
       d="m 658.338,751.14 -6.593,-4.55 6.23,-2.562 4.992,3.348 -4.63,3.764 z"
       class="E"
       id="path188675" />
    <path
       d="m 663.116,794.049 -3.22,-1.747 35.056,-19.396 2.543,-0.062 -10e-4,2.22 c -3.813,3.291 -6.331,5.133 -9.681,7.446 -9.829,6.787 -17.189,8.742 -24.698,11.54 z"
       class="C"
       id="path188677" />
    <path
       d="m 652.587,787.517 c -11.594,5.408 -17.782,12.025 -22.972,17.912 l -1.044,1.167 c 2.855,1.7 5.774,3.274 8.731,4.768 l 1.098,-0.994 c 4.628,-4.32 9.36,-8.699 14.871,-11.815 0.945,-0.534 1.869,-1.012 2.784,-1.467 l -0.036,-0.019 c 2.514,-1.249 4.653,-2.173 7.053,-3.067 -1.085,-0.584 -1.886,-1.195 -2.955,-1.805 l 0.013,-0.007 c -2.612,-1.483 -5.153,-3.042 -7.542,-4.672 z"
       fill="#f9cccd"
       id="path188679" />
    <path
       d="m 663.076,793.999 -7.215,2.978 -0.006,-0.004 -0.116,0.063 -0.042,0.02 h 0.002 l -2.628,1.461 c -5.457,3.085 -10.141,7.421 -14.724,11.698 -0.317,0.296 -0.719,0.65 -1.087,0.984 l -0.025,0.056 c 11.129,5.55 31.707,14.595 46.766,13.896 1.881,-0.79 3.572,-1.457 4.883,-2.373 1.336,-0.933 2.337,-1.836 3.05,-2.945 0.713,-1.109 1.305,-2.05 1.223,-3.458 -0.031,-0.539 -0.177,-1.028 -0.388,-1.527 0.014,0 0.009,0 0.023,0.003 -0.342,-0.786 -0.879,-1.609 -1.677,-2.734 -1.335,-1.882 -6.704,-7.431 -15.736,-11.862 l -12.303,-6.257 z"
       fill="#355d7d"
       id="path188681" />
    <path
       d="m 561.842,706.547 0.177,1.338 -0.184,-1.335 z m 13.735,-5.333 0.011,0.019 -0.011,0.017 -0.012,-0.018 z"
       class="B"
       id="path188683" />
    <path
       d="m 560.559,690.307 -0.014,-1.25 -0.004,-1.116 h 18.886 l 0.069,0.908 a 22.39,22.39 0 0 1 -0.14,2.447 l -0.004,0.04 -0.092,0.698 -0.03,0.202 -0.098,0.575 -0.071,0.366 -0.089,0.429 -0.133,0.564 -0.061,0.248 a 23.01,23.01 0 0 1 -3.09,6.897 c -2.021,-3.252 -5.528,-5.507 -8.637,-6.969 -3.109,-1.462 -5.82,-2.131 -6.247,-2.212 -0.067,-0.013 -0.128,-0.016 -0.205,-0.029 l -0.039,-1.799 z"
       fill="#a7e3d9"
       id="path188685" />
    <g
       class="B"
       id="g188691">
      <path
         d="m 560.606,690.944 0.025,1.152 z"
         id="path188687" />
      <path
         d="m 560.574,688.075 0.012,1.003 0.014,1.237 0.007,0.628 z"
         id="path188689" />
    </g>
    <path
       d="m 618.936,687.934 0.083,4.193 -15.47,-0.045 c -5.992,-0.042 -12.663,1.147 -16.912,2.635 -4.249,1.488 -9.677,5.672 -11.037,6.533 1.395,-2.124 2.417,-4.455 3.04,-6.863 l 0.06,-0.245 0.132,-0.559 0.088,-0.425 0.07,-0.363 0.097,-0.569 0.03,-0.2 c 0.034,-0.23 0.065,-0.46 0.091,-0.691 l 0.004,-0.04 c 0.092,-0.809 0.144,-1.627 0.146,-2.454 a 22.18,22.18 0 0 0 -0.068,-0.899 h -18.707 v 0.031 h -0.008 l 10e-4,0.103 -0.002,-0.141 z"
       fill="#bdccc2"
       id="path188693" />
    <path
       d="m 697.496,772.845 h -10e-4 l 10e-4,-1.856 z"
       class="B"
       id="path188695" />
    <path
       d="m 575.572,701.219 c 0,0 0.012,0.052 0,0 z"
       class="D"
       id="path188697" />
    <path
       d="m 631.293,725.856 -0.445,-0.627 0.657,-0.288 0.006,0.148 -0.217,0.767 z"
       class="F G"
       id="path188699" />
    <path
       d="m 639.725,721.033 c -2.627,1.424 -5.412,2.734 -8.22,3.909 -0.038,-3.708 -0.611,-7.207 -1.124,-9.853 l 2.609,-1.247 1.696,-0.921 c 1.499,2.797 3.192,5.508 5.04,8.112 z"
       class="K"
       id="path188701" />
    <path
       d="m 697.413,688.783 c -8.376,1.03 -17.989,5.368 -24.139,9.167 -0.189,0.119 -0.39,0.261 -0.58,0.382 l -3.443,-2.418 -3.185,2.945 -4.134,2.992 -6.595,-3.022 c 3.64,-2.529 7.355,-5.01 10.479,-6.935 2.132,-1.313 4.936,-2.703 7.463,-3.892 l 24.121,-0.103 z"
       class="I"
       id="path188703" />
    <path
       d="m 697.489,770.986 v 1.856 h -10e-4 z"
       class="D"
       id="path188705" />
    <path
       d="m 697.418,772.845 -2.475,0.061 -35.056,19.396 -7.43,-4.603 2.759,-1.225 c 9.267,-3.871 13.929,-4.939 19.477,-7.629 5.548,-2.69 12.031,-6.882 15.349,-9.318 -3.926,-2.953 -18.459,-9.774 -31.712,-18.384 l 4.63,-3.764 7.422,5.044 -1.615,-5.099 1.402,-0.467 0.712,-0.603 c 5.946,3.273 12.026,6.562 17.434,10.249 3.144,2.143 5.569,3.654 9.103,6.866 z"
       class="C"
       id="path188707" />
    <path
       d="m 579.285,688.002 0.064,0.843 a 22.2,22.2 0 0 1 -0.146,2.454 c 0.09,-0.802 0.137,-1.611 0.138,-2.423 l -0.066,-0.874 z"
       class="D"
       id="path188709" />
    <path
       d="m 663.016,741.787 3.951,2.271 -4.001,3.32 -4.992,-3.348 1.738,-0.714 3.303,-1.529 z"
       class="E"
       id="path188711" />
    <path
       d="m 763.748,650.707 -0.434,-0.622 c 0.716,-11.291 1.448,-26.606 -0.626,-36.001 0.187,0.068 0,0 0,0 15.96,-12.421 17.485,-49.826 25.732,-8.458 l 0.073,0.003 0.122,-0.023 c 0.919,0.059 3.537,0.456 8.221,2.241 6.81,2.594 11.212,6.936 13.819,11.415 0.808,1.388 1.2,3.236 1.329,4.057 0.095,0.609 0.193,2.196 0.088,2.469 -0.221,0.573 -0.576,1.036 -1.239,1.862 -0.02,0 -0.09,0.027 -0.144,0.046 -0.64,0.796 -1.518,1.889 -2.812,3.674 -0.379,0.522 -0.771,1.012 -1.169,1.481 -0.008,0.009 -0.016,0.017 -0.023,0.026 l -0.005,0.005 c -2.564,2.999 -5.434,4.931 -7.316,6.665 -2.178,2.007 -10.805,5.894 -13.539,6.449 -0.152,0.031 -0.253,0.035 -0.396,0.061 -1.533,-0.158 -3.002,-0.183 -4.373,-0.051 -4.946,0.479 -11.1,2.155 -17.304,4.697 z"
       fill="#d25f7b"
       id="path188713" />
    <path
       d="m 832.08,664.893 0.509,3.144 c 0.065,0.446 1.319,12.459 1.408,16.228 -0.161,1.577 -6.371,1.408 -10.079,-1.381 -3.708,-2.789 -4.998,-8.117 -4.998,-8.117 2.977,-4.471 7.607,-8.07 13.16,-9.873 z"
       class="B"
       id="path188715" />
    <path
       d="m 819.016,674.911 -0.603,-1.072 c -2.158,-4.495 -4.878,-9.103 -8.312,-13.247 l 0.387,0.41 v -0.028 c -0.079,-0.111 -0.179,-0.276 -0.256,-0.357 l -4.259,-4.49 c -1.11,-1.17 -1.928,-1.869 -2.715,-2.303 -0.169,-0.131 -0.324,-0.275 -0.495,-0.403 a 44.7,44.7 0 0 0 -6.55,-4.081 c 2.034,-1.183 4.176,-2.509 6.275,-3.937 l -0.063,-0.069 c 2.936,-2 5.648,-4.074 7.295,-5.776 0.842,-0.87 1.737,-1.952 2.638,-3.096 l 0.183,0.12 c 2.646,-3.725 5.162,-7.395 6.918,-10.163 l 3.684,7.95 0.062,-0.041 c 4.135,9.657 7.202,19.932 9.025,30.717 -5.585,1.811 -10.211,5.368 -13.204,9.865 l -0.008,0.002 z m 13.214,-9.866 c 0.034,0.159 0.055,0.322 0.082,0.484 z m 0.501,3.162 -0.021,-0.13 0.02,0.13 z"
       fill="#f86f79"
       id="path188717" />
    <path
       d="m 768.595,659.006 c -1.475,-3.012 -3.045,-5.669 -4.854,-8.276 6.173,-2.529 12.414,-4.316 17.335,-4.792 a 19.18,19.18 0 0 1 1.945,-0.083 c 0.862,-0.042 2.118,0.048 4.059,0.276 l 0.003,-10e-4 0.01,0.002 c 2.537,0.554 6.476,1.816 9.251,3.226 l -3.337,1.873 c -3.94,2.038 -8.834,2.978 -13.263,4.112 -0.009,0 -0.018,-10e-4 -0.027,-10e-4 -1.304,0.335 -2.572,0.685 -3.756,1.089 l -5.718,1.981 0.008,-0.009 z"
       fill="#febfc1"
       id="path188719" />
    <path
       d="m 763.093,651.02 0.657,-0.288 a 62.29,62.29 0 0 1 4.854,8.276 l -4.386,1.865 c -0.514,-2.646 -1.087,-6.145 -1.124,-9.853 z"
       class="H"
       id="path188721" />
    <path
       d="m 754.878,654.929 c -2.127,-2.997 -4.473,-5.836 -7.022,-8.459 l -0.018,0.005 c -1.494,-1.536 -3.041,-3.014 -4.667,-4.388 -0.974,-0.823 -2.015,-1.621 -3.089,-2.407 l 0.454,-5.242 c -0.05,0.243 -0.22,2.279 -0.454,5.218 -2.601,-1.906 -5.48,-3.714 -8.491,-5.485 a 52.04,52.04 0 0 1 3.303,-1.529 l 1.738,-0.714 0.022,0.015 6.208,-2.553 v 0 c 3.684,2.706 7.093,5.531 9.893,8.435 2.106,2.185 3.889,4.131 5.525,6 l 0.017,-0.004 c 1.907,2.179 3.557,4.244 5.011,6.284 l -0.217,0.767 c 0,0.048 0.005,0.099 0.006,0.148 -2.808,1.176 -5.593,2.485 -8.22,3.909 z"
       fill="#f4d5c8"
       id="path188723" />
    <path
       d="m 796.305,649.412 c -2.751,-1.398 -5.419,-2.368 -7.937,-2.932 l -0.142,0.032 -2.824,-0.533 c 0.144,-0.026 0.902,-0.366 1.054,-0.397 2.747,-0.558 10.659,-4.056 12.848,-6.073 3.549,-3.079 5.81,-4.863 8.42,-8.096 1.375,-1.895 2.279,-3.003 2.907,-3.785 0.004,0 -0.007,-0.075 -0.004,-0.074 0.256,0.128 3.375,-5.195 4.571,-6.689 0.284,-0.355 0.449,-0.616 0.68,-0.936 a 136.82,136.82 0 0 1 3.587,6.578 c -2.383,3.533 -4.763,7.221 -6.916,10.105 -0.901,1.143 -1.796,2.226 -2.638,3.096 -1.647,1.701 -4.36,3.775 -7.295,5.775 l -0.016,-0.017 a 106.71,106.71 0 0 1 -6.294,3.948 z"
       fill="#ff899b"
       id="path188725" />
    <path
       d="m 805.952,656.09 c 1.512,1.396 2.921,2.882 4.216,4.445 z"
       class="B"
       id="path188727" />
    <path
       d="m 803.239,653.786 c 0.795,0.438 1.605,1.161 2.743,2.326 z"
       class="J"
       id="path188729" />
    <path
       d="m 779.711,655.346 c 4.429,-1.135 9.324,-2.075 13.264,-4.113 0.991,-0.513 2.166,-1.192 3.337,-1.872 a 44.47,44.47 0 0 1 6.518,4.061 c 0.171,0.128 0.324,0.272 0.492,0.402 a 4.77,4.77 0 0 0 -1.297,-0.49 c -2.658,-0.589 -4.545,-0.695 -7.927,-0.438 -3.201,0.243 -5.179,0.409 -7.203,0.816 -2.024,0.407 -4.092,1.056 -6.267,1.539 a 4.05,4.05 0 0 1 -0.917,0.094 z"
       fill="#fd7d86"
       id="path188731" />
    <path
       d="m 768.972,659.793 -0.363,-0.784 1.678,-0.611 z"
       class="B"
       id="path188733" />
    <path
       d="m 775.63,685.34 -0.207,-4.874 c -0.113,-2.614 -2.281,-10.828 -3.244,-13.261 -1.096,-2.772 -2.516,-5.968 -3.581,-8.202 l 1.69,-0.599 5.69,-1.971 c 1.201,-0.409 2.487,-0.763 3.811,-1.103 0.297,0.003 0.601,-0.025 0.913,-0.094 2.163,-0.481 4.222,-1.126 6.235,-1.531 2.013,-0.405 3.981,-0.57 7.166,-0.812 3.365,-0.255 5.243,-0.15 7.887,0.436 0.462,0.102 0.876,0.259 1.291,0.487 a 40.58,40.58 0 0 1 2.689,2.28 c 1.022,1.046 2.383,2.52 4.216,4.445 l -4.216,-4.445 c 1.417,1.279 2.202,1.775 4.599,4.85 0.003,0.224 -0.235,-0.25 -0.383,-0.405 3.4,4.103 6.093,8.665 8.23,13.116 0.177,0.368 0.384,0.716 0.597,1.061 v 0 0.001 c -1.294,1.17 -4.093,5.245 -8.342,6.732 -4.249,1.487 -13.867,6.166 -19.858,6.123"
       fill="#ae5f7f"
       id="path188735" />
    <path
       d="m 739.257,677.135 -6.595,-3.022 0.005,-0.004 -3.216,-1.533 8.575,-6.144 9.088,-6.648 c 2.296,-1.688 4.938,-3.326 7.755,-4.854 1.848,2.604 3.541,5.315 5.04,8.112 -4.783,2.685 -10.057,6.475 -14.707,9.873 l -5.944,4.22 z"
       fill="#fcd9d5"
       id="path188737" />
    <path
       d="m 729.444,672.578 -7.516,5.036 -0.586,0.381 c -7.943,4.997 -17.221,8.35 -20.979,8.82 l -3.013,0.387 -0.267,0.791 h 24.255 c 2.539,-1.196 5.357,-2.592 7.5,-3.912 3.14,-1.934 6.873,-4.428 10.532,-6.97 -2.117,-0.906 -4.371,-1.966 -6.628,-3.037 l -4.155,3.007 -3.201,2.96 -0.019,-0.014 3.162,-2.923 4.133,-2.992 z"
       class="I"
       id="path188739" />
    <path
       d="m 697.343,658.893 c -4.151,3.5 -8.803,6.761 -13.2,10.09 l -10.607,8.083 -0.793,0.557 c 6.835,4.961 20.911,9.462 24.578,9.534 l 10e-4,0.039 3.123,-0.408 c 3.739,-0.467 12.971,-3.804 20.875,-8.776 0.189,-0.119 0.39,-0.261 0.58,-0.382 l -0.793,-0.557 c -2.043,-1.412 -10.607,-8.083 -10.607,-8.083 -4.108,-3.928 -9.508,-7.031 -13.156,-10.097 z"
       fill="#988da9"
       id="path188741" />
    <path
       d="m 697.109,658.991 v 0.029 l -0.021,-0.013 z"
       class="B"
       id="path188743" />
    <path
       d="m 697.272,658.866 -0.165,-5.864 h 10e-4 l 0.29,-4.451 19.339,-14.412 6.385,-3.972 c 0.178,-0.13 0.356,-0.284 0.585,-0.475 l 3.917,2.201 0.054,-0.045 3.971,2.283 c -10.76,4.836 -21.069,14.891 -27.373,19.469 l -1.143,0.869 c 0,-0.01 0.004,-0.023 0.005,-0.033 l -0.017,0.013 -5.848,4.415 z"
       fill="#d78698"
       id="path188745" />
    <path
       d="m 731.63,628.581 c -1.331,1.3 -2.961,2.607 -3.667,3.147 -0.258,0.198 -0.367,0.163 -0.328,0.172 l -3.925,-2.194 0.711,-0.602 1.402,-0.468 -1.615,-5.099 z"
       class="C"
       id="path188747" />
    <path
       d="m 736.26,624.812 6.593,4.55 -6.23,2.562 -4.992,-3.348 4.63,-3.764 z"
       class="E"
       id="path188749" />
    <path
       d="m 731.484,581.903 3.22,1.747 -35.056,19.396 -2.543,0.062 0.378,-2.299 c 3.813,-3.291 6.331,-5.133 9.681,-7.446 9.829,-6.787 16.812,-8.663 24.321,-11.461 z"
       class="C"
       id="path188751" />
    <path
       d="m 742.013,588.435 c -0.957,-0.748 -6.927,-4.574 -7.498,-4.914 l -2.987,-1.569 c 2.4,-0.894 4.541,-1.819 7.054,-3.067 l -0.036,-0.019 2.784,-1.467 c 5.511,-3.116 10.243,-7.495 14.871,-11.815 0.32,-0.299 0.726,-0.657 1.098,-0.994 2.957,1.494 5.876,3.068 8.731,4.767 l -1.044,1.167 c -5.19,5.887 -11.378,12.503 -22.972,17.911 z"
       fill="#febfb9"
       id="path188753" />
    <path
       d="m 731.524,581.953 c -4.274,-2.299 -8.496,-4.388 -12.304,-6.256 -9.031,-4.431 -14.4,-9.98 -15.735,-11.862 -0.798,-1.125 -1.334,-1.948 -1.677,-2.734 0.014,0 0.01,0 0.023,0.003 -0.211,-0.499 -0.357,-0.989 -0.389,-1.527 -0.082,-1.408 0.51,-2.349 1.223,-3.458 0.713,-1.109 1.714,-2.011 3.05,-2.944 1.311,-0.916 3.002,-1.583 4.883,-2.373 15.057,-0.699 35.636,8.345 46.766,13.896 l -0.025,0.056 -1.087,0.984 c -4.582,4.277 -9.267,8.613 -14.723,11.698 -0.883,0.499 -1.769,1.024 -2.628,1.461 h 0.002 c -0.012,0.006 -0.025,0.012 -0.037,0.018 -0.04,0.02 -0.082,0.045 -0.122,0.065 l -0.007,-0.004 c -2.45,1.204 -4.875,2.106 -7.214,2.978 z"
       fill="#a6638c"
       id="path188755" />
    <path
       d="m 742.832,629.384 -6.514,-4.499 -0.036,0.029 c -13.319,-8.653 -27.924,-15.508 -31.87,-18.476 3.335,-2.448 9.85,-6.661 15.425,-9.364 5.575,-2.703 10.261,-3.776 19.574,-7.667 0.961,-0.402 1.879,-0.814 2.773,-1.231 1.936,1.321 3.786,2.679 5.436,4.091 5.911,5.064 9.601,10.09 11.912,14.04 l -0.113,0.09 c 0.708,1.215 1.299,2.339 1.764,3.311 0.557,1.163 1.133,2.772 1.695,4.54 v 0 c -3.51,2.049 -6.573,4.225 -7.869,6.142 -2.764,4.086 -6.37,6.13 -8.654,7.452 -0.455,0.264 -1.869,0.859 -3.523,1.54 z"
       fill="#fd8f96"
       id="path188757" />
    <g
       class="B"
       id="g188763">
      <path
         d="m 832.758,669.412 -0.177,-1.338 0.184,1.335 z m -13.742,5.334 -0.011,-0.019 0.011,-0.017 0.012,0.018 z m 14.973,10.27 -0.025,-1.152 z"
         id="path188759" />
      <path
         d="m 834.014,687.885 -0.012,-1.003 -0.014,-1.237 -0.007,-0.628 z"
         id="path188761" />
    </g>
    <path
       d="m 819.112,674.667 c -1.375,0.867 -6.83,4.824 -11.1,6.319 -4.27,1.495 -10.977,2.939 -16.999,2.897 -3.419,-0.024 -9.583,0.048 -15.432,-0.037 0.005,1.422 0.069,3.091 0.096,4.209 0.018,1.312 -0.061,2.682 -0.129,4.078 l 15.424,-0.063 c 4.721,-0.033 13.566,2.148 17.903,3.93 4.337,1.782 8.821,4.42 10.188,5.285 -3.586,-10.019 -4.464,-19.335 0.049,-26.619 z"
       fill="#93688d"
       id="path188765" />
    <path
       d="m 697.107,648.518 v -0.322 l -19.174,-14.022 -6.353,-3.952 c -0.177,-0.129 -0.421,-0.334 -0.648,-0.524 5.946,-3.273 12.026,-6.562 17.434,-10.249 3.033,-2.068 5.403,-3.557 8.738,-6.542 v -0.377 l 0.212,0.188 0.221,-0.196 v 0.393 c 3.336,2.985 5.706,4.474 8.739,6.542 5.408,3.687 11.487,6.975 17.434,10.249 -0.228,0.19 -0.471,0.395 -0.649,0.524 -0.467,0.34 -5.181,3.159 -6.353,3.952 -2.091,1.415 -15.727,11.772 -19.19,14.329 l 0.016,10e-4 -0.208,-0.153 -0.219,0.161 z"
       fill="#ff979c"
       id="path188767" />
    <g
       class="B"
       id="g188773">
      <path
         d="m 697.104,604.965 10e-4,7.558 z"
         id="path188769" />
      <path
         d="m 697.104,603.106 h 10e-4 l -10e-4,1.856 z"
         id="path188771" />
    </g>
    <path
       d="m 701.885,561.378 c -0.891,1.835 -2.022,2.041 -3.646,2.025 l -0.801,0.544 c -1.57,0.026 -2.661,-0.947 -4.862,-2.725 0.228,-0.524 0.384,-1.033 0.417,-1.597 0.082,-1.401 -0.508,-2.337 -1.217,-3.44 -0.709,-1.103 -1.706,-2.002 -3.035,-2.93 -1.305,-0.911 -2.839,-1.668 -4.711,-2.454 4.005,-0.02 8.701,-0.668 13.44,-0.612 v 0.006 c 4.636,-0.027 9.219,0.594 13.139,0.613 -1.871,0.786 -3.406,1.543 -4.711,2.454 -1.329,0.928 -2.325,1.827 -3.034,2.93 -0.709,1.103 -1.299,2.04 -1.217,3.441 0.033,0.564 0.048,1.167 0.276,1.691 z"
       fill="#e0a7b3"
       id="path188775" />
    <path
       d="m 819.016,674.741 c 0,0 -0.012,-0.052 0,0 z"
       class="D"
       id="path188777" />
    <path
       d="m 763.312,650.087 0.448,0.63 -0.66,0.289 -0.006,-0.149 0.218,-0.771 z"
       class="F G"
       id="path188779" />
    <path
       d="m 754.878,654.926 c 2.627,-1.424 5.412,-2.734 8.22,-3.909 0.038,3.708 0.611,7.207 1.124,9.853 l -2.609,1.247 -1.696,0.921 c -1.499,-2.797 -3.192,-5.508 -5.04,-8.112 z"
       class="H"
       id="path188781" />
    <g
       class="D"
       id="g188787">
      <path
         d="m 697.109,604.965 v -1.856 h 10e-4 z"
         id="path188783" />
      <path
         d="m 697.112,612.527 -10e-4,-7.558 z"
         id="path188785" />
    </g>
    <path
       d="m 697.18,603.106 2.475,-0.061 35.056,-19.396 7.43,4.603 -2.759,1.225 c -9.267,3.871 -13.929,4.939 -19.477,7.629 -5.548,2.69 -12.031,6.882 -15.349,9.318 3.926,2.953 18.459,9.774 31.712,18.384 l -4.63,3.764 -7.422,-5.044 1.615,5.099 -1.402,0.467 -0.712,0.603 c -5.946,-3.273 -12.026,-6.562 -17.434,-10.249 -3.144,-2.143 -5.569,-3.654 -9.103,-6.866 z"
       class="C"
       id="path188789" />
    <path
       d="m 762.817,614.286 c -0.564,-1.777 -1.144,-3.393 -1.703,-4.562 l -1.769,-3.319 c -2.314,-3.948 -6.005,-8.974 -11.915,-14.038 -1.649,-1.413 -3.499,-2.771 -5.435,-4.091 11.479,-5.354 17.606,-11.906 22.744,-17.734 l 1.034,-1.156 c -2.827,-1.683 -2.812,-1.704 0.014,-0.016 12.019,7.18 23.064,16.173 32.622,26.675 h 0.003 c 0.009,0.01 0.014,0.017 0.024,0.027 l 0.058,0.063 -0.003,0.003 c 0.396,0.446 0.633,0.775 1.046,1.252 l 0.209,0.24 c -0.128,2.269 -2.587,3.546 -3.939,4.492 -2.218,1.569 -3.879,3.103 -6.942,3.76 -0.292,-0.019 -0.442,-0.011 -0.442,-0.011 0,0 -7.42,-0.148 -13.702,2.509 -3.335,1.411 -7.909,3.576 -11.901,5.906 z"
       fill="#c4567a"
       id="path188791" />
    <path
       d="m 697.413,600.87 v -0.072 c -3.738,-3.219 -6.246,-5.055 -9.556,-7.341 -9.829,-6.787 -17.188,-8.742 -24.697,-11.54 4.232,-2.276 8.483,-4.396 12.252,-6.245 8.942,-4.387 14.258,-9.881 15.579,-11.744 0.79,-1.114 1.321,-1.929 1.66,-2.707 a 104.87,104.87 0 0 1 4.515,-0.201 v -0.003 c 0.013,0 0.027,0.003 0.04,0.003 l 0.268,-0.009 v 0.017 a 102.29,102.29 0 0 1 4.394,0.174 c 0.339,0.778 0.991,1.619 1.781,2.733 1.322,1.863 6.638,7.357 15.579,11.744 l 12.253,6.246 c -7.509,2.798 -14.868,4.753 -24.698,11.54 -3.31,2.286 -5.578,4.137 -9.313,7.356 v 0.026 c -0.03,10e-4 -0.042,0.01 -0.057,0.023 z"
       fill="#ff9da0"
       id="path188793" />
    <path
       d="m 731.582,634.173 -3.951,-2.271 4.001,-3.319 4.992,3.348 -1.738,0.714 -3.303,1.529 z"
       class="E"
       id="path188795" />
    <path
       d="m 562.558,664.885 -0.509,3.144 c -0.065,0.446 -1.319,12.459 -1.408,16.228 0.161,1.577 6.371,1.408 10.079,-1.381 3.708,-2.789 4.998,-8.117 4.998,-8.117 -2.977,-4.471 -7.607,-8.07 -13.16,-9.873 z"
       fill="#a2ece2"
       id="path188797" />
    <path
       d="m 575.624,674.904 -0.008,-10e-4 c -2.994,-4.496 -7.619,-8.054 -13.205,-9.865 1.823,-10.785 4.889,-21.06 9.025,-30.717 l 0.062,0.041 3.684,-7.95 c 1.762,2.777 4.363,6.745 6.998,10.111 l 0.104,-0.068 c 0.901,1.143 1.796,2.226 2.638,3.096 1.647,1.701 4.36,3.775 7.295,5.776 l -0.063,0.07 c 2.099,1.427 4.24,2.753 6.275,3.936 a 44.71,44.71 0 0 0 -6.55,4.082 c -0.171,0.128 -0.326,0.273 -0.495,0.403 -0.787,0.433 -1.606,1.133 -2.716,2.303 l -4.258,4.489 c -0.077,0.081 -0.177,0.246 -0.257,0.357 v 0.027 l 0.387,-0.409 c -3.434,4.144 -6.154,8.752 -8.312,13.247 -0.178,0.371 -0.388,0.723 -0.603,1.071 z m -13.212,-9.866 -0.082,0.484 0.076,-0.487 z m -0.501,3.163 0.02,-0.13 h 10e-4 l -0.02,0.13 z"
       fill="#fec1a8"
       id="path188799" />
    <path
       d="m 626.035,658.996 c 1.475,-3.012 3.045,-5.669 4.854,-8.276 -6.173,-2.529 -12.414,-4.316 -17.335,-4.792 a 19.18,19.18 0 0 0 -1.945,-0.083 c -0.862,-0.042 -2.118,0.048 -4.059,0.276 l -0.002,-10e-4 -0.009,0.002 c -2.537,0.554 -6.476,1.816 -9.251,3.226 1.17,0.681 2.345,1.36 3.337,1.873 3.94,2.038 8.834,2.978 13.263,4.112 0.009,0 0.018,-10e-4 0.027,-10e-4 1.304,0.335 2.572,0.685 3.756,1.089 l 5.718,1.981 -0.008,-0.009 1.656,0.603 z"
       fill="#f0fde7"
       id="path188801" />
    <path
       d="m 631.555,651.012 -0.657,-0.288 c -1.809,2.607 -3.379,5.264 -4.854,8.276 l 4.386,1.865 c 0.514,-2.646 1.087,-6.145 1.124,-9.853 z"
       class="K"
       id="path188803" />
    <path
       d="m 639.775,654.921 c 2.127,-2.997 4.473,-5.836 7.022,-8.459 l 0.018,0.005 c 1.494,-1.536 3.041,-3.014 4.667,-4.388 0.974,-0.823 2.015,-1.621 3.089,-2.407 l -0.454,-5.242 c 0.05,0.243 0.22,2.279 0.454,5.218 2.601,-1.906 5.48,-3.714 8.491,-5.485 a 52.04,52.04 0 0 0 -3.303,-1.529 l -1.738,-0.714 -0.022,0.015 -6.208,-2.553 v 0 c -3.684,2.706 -7.093,5.531 -9.893,8.435 -2.107,2.185 -3.889,4.131 -5.526,6 l -0.017,-0.004 c -1.907,2.179 -3.557,4.244 -5.011,6.284 l 0.217,0.767 c 0,0.048 -0.005,0.099 -0.006,0.148 2.808,1.176 5.593,2.485 8.22,3.909 z"
       fill="#e8f2ed"
       id="path188805" />
    <path
       d="m 631.336,650.095 c 1.439,-2.02 3.071,-4.064 4.954,-6.219 l 0.045,0.011 5.57,-6.05 c 2.814,-2.919 6.24,-5.758 9.942,-8.478 -1.662,-0.684 -3.083,-1.283 -3.541,-1.548 -2.295,-1.329 -5.919,-3.382 -8.697,-7.489 -1.303,-1.926 -4.381,-4.114 -7.909,-6.173 -1.441,4.537 -2.737,10.345 -2.993,14.085 -0.178,2.603 -0.464,8.278 0.287,12.552 0.086,0.491 0.172,0.878 0.257,1.32 l 0.065,0.016 c 0.592,3.04 1.213,5.199 2.019,7.972 z"
       fill="#f4a5a1"
       id="path188807" />
    <path
       d="m 630.896,650.726 0.445,-0.627 -2.021,-7.986 0.069,0.017 -0.257,-1.32 c -0.751,-4.274 -0.465,-9.949 -0.287,-12.552 0.256,-3.74 1.552,-9.548 2.993,-14.085 -0.186,0.067 0,0 0,0 -3.992,-2.331 -8.566,-4.495 -11.901,-5.906 -6.281,-2.657 -13.702,-2.509 -13.702,-2.509 l -0.073,0.003 -0.122,-0.023 c -0.914,0.058 -3.519,0.454 -8.18,2.229 -6.776,2.581 -11.155,6.901 -13.749,11.357 -0.804,1.381 -1.194,3.219 -1.322,4.037 -0.095,0.606 -0.193,2.185 -0.087,2.456 0.22,0.57 0.573,1.03 1.233,1.852 0.02,0 0.089,0.027 0.143,0.046 0.637,0.792 1.511,1.88 2.798,3.655 a 24.35,24.35 0 0 0 1.163,1.473 h -10e-4 c 0.008,0.009 0.016,0.017 0.023,0.026 l 0.005,0.005 c 2.551,2.984 5.407,4.906 7.279,6.632 2.167,1.997 10.751,5.864 13.471,6.417 0.151,0.031 0.252,0.035 0.394,0.061 1.525,-0.157 2.987,-0.182 4.35,-0.05 4.921,0.476 11.162,2.263 17.335,4.792 z"
       fill="#ff9794"
       id="path188809" />
    <path
       d="m 598.335,649.405 c 2.751,-1.398 5.419,-2.368 7.937,-2.932 l 0.142,0.032 2.824,-0.533 c -0.144,-0.026 -0.902,-0.366 -1.054,-0.397 -2.747,-0.558 -10.659,-4.056 -12.848,-6.073 -1.861,-1.715 -4.683,-3.623 -7.228,-6.555 l 0.17,-0.108 c -0.393,-0.462 -0.988,-0.917 -1.362,-1.433 -1.374,-1.895 -2.279,-3.003 -2.907,-3.785 -0.004,0 0.007,-0.075 0.004,-0.074 -0.256,0.128 -3.375,-5.195 -4.571,-6.689 -0.284,-0.355 -0.449,-0.616 -0.68,-0.936 a 136.82,136.82 0 0 0 -3.587,6.578 c 1.754,2.765 4.349,6.723 6.974,10.067 l -0.058,0.038 c 0.901,1.143 1.796,2.226 2.638,3.096 1.647,1.701 4.36,3.775 7.295,5.775 l 0.016,-0.017 a 106.71,106.71 0 0 0 6.294,3.948 z"
       fill="#fee7ca"
       id="path188811" />
    <path
       d="m 588.683,656.08 c -1.512,1.396 -2.921,2.882 -4.216,4.445 z"
       class="B"
       id="path188813" />
    <path
       d="m 591.399,653.778 c -0.795,0.438 -1.605,1.161 -2.743,2.326 z"
       class="J"
       id="path188815" />
    <path
       d="m 614.866,655.328 c -4.407,-1.129 -9.276,-2.064 -13.197,-4.092 -0.986,-0.51 -2.155,-1.186 -3.32,-1.863 -2.122,1.078 -4.29,2.399 -6.485,4.041 -0.17,0.127 -0.323,0.27 -0.49,0.4 0.415,-0.228 0.828,-0.385 1.291,-0.487 2.644,-0.586 4.522,-0.691 7.887,-0.436 3.185,0.242 5.153,0.407 7.166,0.812 2.013,0.405 4.072,1.051 6.235,1.531 a 4.03,4.03 0 0 0 0.913,0.094 z"
       fill="#e7e0cc"
       id="path188817" />
    <path
       d="m 610.411,683.88 h -6.829 c -5.992,0.042 -12.663,-1.147 -16.912,-2.634 -4.249,-1.487 -9.677,-5.672 -11.038,-6.533 a 11.65,11.65 0 0 0 0.597,-1.061 c 2.058,-4.287 4.639,-8.673 7.864,-12.657 -0.01,-0.005 -0.017,-0.018 -0.017,-0.053 2.397,-3.075 3.182,-3.572 4.599,-4.85 0.86,-0.794 1.754,-1.556 2.689,-2.28 0.415,-0.228 0.829,-0.385 1.291,-0.487 2.644,-0.586 4.522,-0.691 7.887,-0.436 3.185,0.242 5.153,0.407 7.166,0.812 2.013,0.405 4.072,1.051 6.235,1.531 a 4.03,4.03 0 0 0 0.913,0.094 c 1.324,0.339 2.61,0.693 3.811,1.103 l 5.69,1.971 1.315,1.395 c -1.065,2.234 -2.11,4.633 -3.206,7.405 -0.962,2.433 -3.13,10.647 -3.243,13.261 l -0.17,3.373 v 0.001 l -8.642,0.046 z m 15.268,-24.094 -1.315,-1.395 1.678,0.611 c -0.122,0.249 -0.242,0.53 -0.363,0.784 z"
       fill="#e7b5ac"
       id="path188819" />
    <path
       d="m 626.078,687.897 c -1.902,-0.564 -6.911,-1.96 -7.144,0.008 l 0.009,4.219 0.011,10e-4 0.169,3.339 c 0.113,2.614 2.281,10.828 3.243,13.261 a 116.8,116.8 0 0 0 3.205,7.403 l -0.005,0.005 0.363,0.785 c 1.421,-0.542 2.879,-1.17 4.382,-1.864 0.859,-0.384 1.704,-0.768 2.624,-1.242 a 55.39,55.39 0 0 0 1.705,-0.926 c -0.539,-1.005 -1.062,-2.016 -1.553,-3.039 -0.183,-0.382 -0.341,-0.774 -0.51,-1.161 l -0.013,0.013 c -2.216,-5.09 -3.207,-10.64 -3.951,-16.161 -1.733,-0.185 -1.566,-0.185 0.007,-0.006 l -0.108,-0.742 c -0.245,-1.866 -0.196,-2.677 -0.177,-3.892 z"
       fill="#fcfde5"
       id="path188821" />
    <path
       d="m 655.386,677.127 6.595,-3.022 -0.005,-0.004 3.216,-1.533 -8.575,-6.144 -9.088,-6.648 c -2.296,-1.688 -4.938,-3.326 -7.755,-4.854 -1.848,2.604 -3.541,5.315 -5.04,8.112 4.783,2.685 10.057,6.475 14.707,9.873 l 5.944,4.22 z"
       fill="#edfdea"
       id="path188823" />
    <path
       d="m 665.199,672.57 -3.218,1.533 4.133,2.993 3.162,2.923 -0.019,0.014 -3.201,-2.96 -4.155,-3.007 -6.628,3.037 c 3.659,2.542 7.392,5.035 10.532,6.969 2.143,1.32 4.961,2.716 7.5,3.912 h 24.255 l 0.001,-0.785 c -8.417,-1.036 -18.079,-5.395 -24.26,-9.212 -0.19,-0.12 -0.392,-0.263 -0.584,-0.384 -2.438,-1.545 -4.954,-3.248 -7.518,-5.033 z"
       class="I"
       id="path188825" />
    <path
       d="m 697.534,658.984 v 0.029 L 697.555,659 Z"
       class="B"
       id="path188827" />
    <path
       d="m 663.01,628.581 c 1.331,1.3 2.961,2.607 3.667,3.147 0.258,0.198 0.367,0.163 0.328,0.172 l 3.925,-2.194 -0.711,-0.602 -1.402,-0.468 1.615,-5.099 z"
       class="C"
       id="path188829" />
    <path
       d="m 658.38,624.812 -6.593,4.55 6.23,2.562 4.992,-3.348 -4.63,-3.764 z"
       class="E"
       id="path188831" />
    <path
       d="m 663.159,581.903 -3.22,1.747 35.056,19.396 2.543,0.062 -10e-4,-2.22 c -3.813,-3.291 -6.331,-5.133 -9.681,-7.446 -9.829,-6.787 -17.189,-8.742 -24.698,-11.54 z"
       class="C"
       id="path188833" />
    <path
       d="m 652.63,588.435 c -11.594,-5.408 -17.782,-12.025 -22.972,-17.912 l -1.044,-1.167 c 2.855,-1.7 5.774,-3.274 8.731,-4.768 l 1.098,0.994 c 4.628,4.32 9.36,8.699 14.871,11.815 0.945,0.534 1.869,1.012 2.784,1.467 l -0.036,0.019 c 2.514,1.249 4.653,2.173 7.053,3.067 -1.085,0.584 -1.886,1.195 -2.955,1.805 l 0.013,0.007 c -2.612,1.483 -5.153,3.042 -7.542,4.672 z"
       fill="#f9cccd"
       id="path188835" />
    <path
       d="m 663.118,581.953 -7.215,-2.978 -0.006,0.004 -0.116,-0.063 -0.042,-0.02 h 0.002 l -2.628,-1.461 c -5.457,-3.085 -10.141,-7.421 -14.724,-11.698 -0.317,-0.296 -0.719,-0.65 -1.087,-0.984 l -0.025,-0.056 c 11.129,-5.55 31.707,-14.595 46.766,-13.896 1.881,0.79 3.572,1.457 4.883,2.373 1.336,0.933 2.337,1.836 3.05,2.945 0.713,1.109 1.305,2.05 1.223,3.458 -0.031,0.539 -0.177,1.028 -0.388,1.527 0.014,0 0.009,0 0.023,-0.003 -0.342,0.786 -0.879,1.609 -1.677,2.734 -1.335,1.882 -6.704,7.431 -15.736,11.862 l -12.303,6.257 z"
       fill="#ff9094"
       id="path188837" />
    <path
       d="m 651.811,629.359 6.514,-4.499 0.036,0.029 c 13.319,-8.653 27.924,-15.508 31.87,-18.476 -3.335,-2.448 -9.85,-6.661 -15.425,-9.364 -5.575,-2.703 -10.261,-3.776 -19.574,-7.667 -0.961,-0.402 -1.879,-0.814 -2.773,-1.231 -1.936,1.321 -3.786,2.679 -5.436,4.091 -5.911,5.064 -9.601,10.09 -11.912,14.04 l 0.113,0.09 c -0.708,1.215 -1.299,2.339 -1.764,3.311 -0.557,1.163 -1.133,2.772 -1.695,4.54 h 10e-4 c 3.51,2.049 6.573,4.225 7.869,6.142 2.764,4.086 6.37,6.13 8.654,7.452 0.455,0.264 1.869,0.859 3.523,1.54 z"
       fill="#ffa4a3"
       id="path188839" />
    <path
       d="m 631.826,614.261 c -3.992,-2.331 -8.566,-4.496 -11.901,-5.907 -6.281,-2.657 -13.702,-2.509 -13.702,-2.509 0,0 -0.15,-0.008 -0.442,0.011 -3.062,-0.657 -4.724,-2.191 -6.942,-3.76 -1.608,-1.137 -2.807,-2.424 -3.329,-3.68 -0.191,-0.459 -0.85,-0.534 -0.61,-0.812 l 0.209,-0.24 c 0.413,-0.476 0.65,-0.806 1.047,-1.252 l -0.003,-0.003 0.052,-0.056 c 0.011,-0.013 0.017,-0.021 0.029,-0.034 h 0.002 c 9.557,-10.502 20.603,-19.495 32.622,-26.675 2.826,-1.688 2.84,-1.668 0.014,0.015 l 1.034,1.156 c 5.139,5.828 11.265,12.379 22.744,17.733 -1.936,1.321 -3.787,2.679 -5.436,4.091 -5.911,5.064 -9.601,10.089 -11.912,14.04 a 45.47,45.47 0 0 0 -1.772,3.317 c -0.559,1.169 -1.139,2.786 -1.703,4.563 z"
       fill="#fe9795"
       id="path188841" />
    <path
       d="m 561.885,669.405 0.177,-1.338 -0.184,1.335 z m 13.734,5.333 0.011,-0.019 -0.011,-0.017 -0.012,0.018 z"
       class="B"
       id="path188843" />
    <path
       d="m 560.619,685.609 -0.014,1.25 -0.004,1.116 h 18.886 l 0.069,-0.908 a 22.39,22.39 0 0 0 -0.14,-2.447 l -0.004,-0.04 -0.092,-0.698 -0.03,-0.202 -0.098,-0.575 -0.071,-0.366 -0.089,-0.429 -0.133,-0.564 -0.061,-0.248 a 23.01,23.01 0 0 0 -3.09,-6.897 c -2.021,3.252 -5.528,5.507 -8.637,6.969 -3.109,1.462 -5.82,2.131 -6.247,2.212 -0.067,0.013 -0.128,0.016 -0.205,0.029 l -0.039,1.799 z"
       fill="#a7e3d9"
       id="path188845" />
    <g
       class="B"
       id="g188851">
      <path
         d="m 560.649,685.008 0.025,-1.152 z"
         id="path188847" />
      <path
         d="m 560.616,687.877 0.012,-1.003 0.014,-1.237 0.007,-0.628 z"
         id="path188849" />
    </g>
    <path
       d="m 618.978,688.018 0.083,-4.193 -15.47,0.045 c -5.992,0.042 -12.663,-1.147 -16.912,-2.635 -4.249,-1.488 -9.677,-5.672 -11.037,-6.533 1.395,2.124 2.417,4.455 3.04,6.863 l 0.06,0.245 0.132,0.559 0.088,0.425 0.07,0.363 0.097,0.569 0.03,0.2 c 0.034,0.23 0.065,0.46 0.091,0.691 l 0.004,0.04 c 0.092,0.809 0.144,1.627 0.146,2.454 a 22.18,22.18 0 0 1 -0.068,0.899 h -18.707 v -0.031 h -0.008 l 0.001,-0.103 -0.002,0.141 z"
       fill="#bdccc2"
       id="path188853" />
    <path
       d="m 697.539,603.106 h -10e-4 l 10e-4,1.856 z"
       class="B"
       id="path188855" />
    <path
       d="m 575.614,674.733 c 0,0 0.012,-0.052 0,0 z"
       class="D"
       id="path188857" />
    <path
       d="m 631.336,650.095 -0.445,0.627 0.657,0.288 0.006,-0.148 -0.217,-0.767 z"
       class="F G"
       id="path188859" />
    <path
       d="m 639.767,654.919 c -2.627,-1.424 -5.412,-2.734 -8.22,-3.909 -0.038,3.708 -0.611,7.207 -1.124,9.853 l 2.609,1.247 1.696,0.921 c 1.499,-2.797 3.192,-5.508 5.04,-8.112 z"
       class="K"
       id="path188861" />
    <path
       d="m 697.531,604.965 v -1.856 h -10e-4 z"
       class="D"
       id="path188863" />
    <path
       d="m 697.461,603.106 -2.475,-0.061 -35.056,-19.396 -7.43,4.603 2.759,1.225 c 9.267,3.871 13.929,4.939 19.477,7.629 5.548,2.69 12.031,6.882 15.349,9.318 -3.926,2.953 -18.459,9.774 -31.712,18.384 l 4.63,3.764 7.422,-5.044 -1.615,5.099 1.402,0.467 0.712,0.603 c 5.946,-3.273 12.026,-6.562 17.434,-10.249 3.144,-2.143 5.569,-3.654 9.103,-6.866 z"
       class="C"
       id="path188865" />
    <path
       d="m 578.775,619.963 0.677,0.932 c 1.19,1.487 3.564,5.879 3.819,5.752 -0.303,-0.486 -0.276,-0.297 -0.502,-0.866 -0.105,-0.27 -0.007,-1.841 0.087,-2.444 0.127,-0.814 0.516,-2.643 1.316,-4.017 2.581,-4.434 6.939,-8.733 13.68,-11.301 4.638,-1.766 7.064,-2.098 7.974,-2.156 -3.047,-0.654 -4.7,-2.181 -6.907,-3.741 -1.6,-1.132 -2.794,-2.411 -3.312,-3.662 -0.19,-0.457 -0.351,-0.71 -0.671,-0.888 0.446,-0.505 0.445,-0.505 -0.001,0 -6.063,6.868 -11.504,14.352 -16.16,22.39"
       fill="#fdb1a5"
       id="path188867" />
    <path
       d="m 579.327,687.95 0.064,-0.843 a 22.2,22.2 0 0 0 -0.146,-2.454 c 0.09,0.802 0.137,1.611 0.138,2.423 l -0.066,0.874 z"
       class="D"
       id="path188869" />
    <path
       d="m 663.058,634.165 3.951,-2.271 -4.001,-3.32 -4.992,3.348 1.738,0.714 3.303,1.529 z"
       class="E"
       id="path188871" />
    <path
       d="m 763.307,650.137 c -1.446,-2.03 -3.087,-4.085 -4.979,-6.25 l -0.045,0.011 -5.599,-6.08 c -2.829,-2.934 -6.272,-5.787 -9.993,-8.521 1.671,-0.688 3.098,-1.289 3.558,-1.556 2.307,-1.335 5.949,-3.399 8.741,-7.527 1.31,-1.936 4.275,-4.034 7.82,-6.104 1.448,4.56 2.879,10.297 3.137,14.056 0.179,2.616 0.467,8.32 -0.288,12.616 -0.087,0.493 -0.172,0.883 -0.258,1.327 l -0.065,0.016 c -0.595,3.056 -1.219,5.225 -2.029,8.012 z"
       fill="#d96e83"
       id="path188873" />
    <path
       d="m 626.045,658.999 -0.362,0.785 0.005,0.005 -3.205,7.41 c -0.962,2.435 -3.13,10.658 -3.243,13.274 l -0.169,3.343 h -0.011 l -0.126,4.254 c 7.713,0.429 4.709,0.033 9.404,-0.011 -0.019,-1.217 0.006,-2.026 0.251,-3.894 0.469,-3.153 1.972,-11.605 4.091,-16.94 l 0.013,0.013 c 0.169,-0.388 0.326,-0.78 0.51,-1.162 0.491,-1.023 1.015,-2.036 1.554,-3.042 l -1.705,-0.927 c -0.92,-0.475 -1.766,-0.859 -2.622,-1.254 -1.505,-0.683 -2.963,-1.312 -4.384,-1.854 z"
       fill="#fcfde5"
       id="path188875" />
    <path
       d="m 664.992,703.323 7.62,-5.104 0.801,0.563 c 2.064,1.426 10.714,8.164 10.714,8.164 l 11.199,8.498 a 24.29,24.29 0 0 0 1.946,1.358 c -1.682,1.393 -4.189,3.562 -5.768,4.714 -11.871,-6.465 -19.606,-11.633 -26.512,-18.192 z"
       fill="#4b92ac"
       id="path188877" />
    <path
       d="m 665.116,703.321 6.884,3.634 c 6.017,3.466 15.192,10.386 19.496,14.467 a 0.33,0.33 0 0 1 0.024,0.156 l -1.143,0.869 -2.013,1.513 -0.124,0.013 c -10.13,7.655 -18.677,13.758 -21.327,15.513 -1.381,0.914 -2.41,1.565 -3.887,2.316 0,0 -0.002,-0.034 0,0 -2.999,-1.764 -5.867,-3.565 -8.46,-5.463 -1.085,-0.787 -2.137,-1.593 -3.12,-2.424 -1.619,-1.367 -3.159,-2.838 -4.648,-4.365 l -0.037,0.009 c -2.569,-2.642 -4.932,-5.502 -7.075,-8.521 2.831,-1.535 5.486,-3.182 7.794,-4.878 l 9.008,-6.588 0.005,-0.073 8.625,-6.18 z"
       fill="#40809c"
       id="path188879" />
    <path
       d="m 815.876,619.963 -0.677,0.932 c -1.19,1.487 -3.564,5.879 -3.819,5.752 0.303,-0.486 0.276,-0.297 0.502,-0.866 0.105,-0.27 0.007,-1.841 -0.087,-2.444 -0.127,-0.814 -0.516,-2.643 -1.316,-4.017 -2.581,-4.434 -6.939,-8.733 -13.68,-11.301 -4.638,-1.766 -7.064,-2.098 -7.974,-2.156 3.047,-0.654 4.7,-2.181 6.907,-3.741 1.923,-1.145 3.446,-2.836 3.983,-4.549 -0.446,-0.505 -0.445,-0.505 0,0 6.063,6.868 11.504,14.352 16.16,22.39"
       fill="#f27289"
       id="path188881" />
    <path
       d="m 763.051,724.932 0.657,0.288 a 62.29,62.29 0 0 0 4.854,-8.276 l -4.386,-1.865 c -0.514,2.646 -1.087,6.145 -1.124,9.853 z"
       class="H"
       id="path188883" />
    <path
       d="m 815.89,755.984 -0.677,-0.932 c -1.19,-1.487 -3.564,-5.879 -3.819,-5.752 0.303,0.486 0.276,0.297 0.502,0.866 0.105,0.27 0.007,1.841 -0.087,2.444 -0.127,0.814 -0.516,2.643 -1.316,4.017 -2.581,4.434 -6.939,8.733 -13.68,11.301 -4.638,1.766 -5.217,1.592 -7.872,2.246 3.047,0.654 4.598,2.091 6.806,3.652 1.6,1.132 2.794,2.411 3.312,3.662 0.19,0.457 0.351,0.71 0.671,0.888 -0.446,0.505 -0.445,0.505 10e-4,0 6.063,-6.868 11.504,-14.352 16.16,-22.39"
       fill="#4f6098"
       fill-opacity="0.851"
       id="path188885" />
    <path
       d="m 797.468,725.935 c -4.693,2.851 -6.959,3.171 -9.075,3.541 -2.116,0.37 -3.452,0.454 -5.176,0.634 10.955,3.514 21.251,10.545 27.439,18.219 0.004,0 -0.007,0.075 -0.004,0.074 0.256,-0.128 3.375,5.195 4.571,6.689 0.284,0.355 0.449,0.616 0.68,0.936 1.248,-2.157 3.601,-6.642 4.736,-8.876 -1.795,-3.049 -15.781,-21.284 -23.17,-21.217 z"
       fill="#4f66a0"
       id="path188887" />
  </g>
</svg>
