<?xml version="1.0" encoding="UTF-8" standalone="no"?>
<!-- Created with Inkscape (http://www.inkscape.org/) -->

<svg
   width="210mm"
   height="297mm"
   viewBox="0 0 210 297"
   version="1.1"
   id="svg485"
   inkscape:version="1.2.2 (732a01da63, 2022-12-09)"
   sodipodi:docname="integration.svg"
   xmlns:inkscape="http://www.inkscape.org/namespaces/inkscape"
   xmlns:sodipodi="http://sodipodi.sourceforge.net/DTD/sodipodi-0.dtd"
   xmlns="http://www.w3.org/2000/svg"
   xmlns:svg="http://www.w3.org/2000/svg">
  <sodipodi:namedview
     id="namedview487"
     pagecolor="#ffffff"
     bordercolor="#000000"
     borderopacity="0.25"
     inkscape:showpageshadow="2"
     inkscape:pageopacity="0.0"
     inkscape:pagecheckerboard="0"
     inkscape:deskcolor="#d1d1d1"
     inkscape:document-units="mm"
     showgrid="false"
     inkscape:zoom="0.70710678"
     inkscape:cx="378.30213"
     inkscape:cy="743.16922"
     inkscape:window-width="1920"
     inkscape:window-height="1010"
     inkscape:window-x="2993"
     inkscape:window-y="464"
     inkscape:window-maximized="1"
     inkscape:current-layer="layer1" />
  <defs
     id="defs482">
    <marker
       style="overflow:visible"
       id="Arrow3"
       refX="0"
       refY="0"
       orient="auto-start-reverse"
       inkscape:stockid="Arrow3"
       markerWidth="4.2071066"
       markerHeight="7"
       viewBox="0 0 4.2071068 7"
       inkscape:isstock="true"
       inkscape:collect="always"
       preserveAspectRatio="xMidYMid">
      <path
         style="fill:none;stroke:context-stroke;stroke-width:1;stroke-linecap:round"
         d="M 3,-3 0,0 3,3"
         id="arrow3"
         transform="rotate(180,0.125,0)"
         sodipodi:nodetypes="ccc" />
    </marker>
    <marker
       style="overflow:visible"
       id="Arrow1"
       refX="0"
       refY="0"
       orient="auto-start-reverse"
       inkscape:stockid="Arrow1"
       markerWidth="4.0606604"
       markerHeight="6.7071066"
       viewBox="0 0 4.0606602 6.7071068"
       inkscape:isstock="true"
       inkscape:collect="always"
       preserveAspectRatio="xMidYMid">
      <path
         style="fill:none;stroke:context-stroke;stroke-width:1;stroke-linecap:butt"
         d="M 3,-3 0,0 3,3"
         id="path5057"
         transform="rotate(180,0.125,0)"
         sodipodi:nodetypes="ccc" />
    </marker>
    <marker
       style="overflow:visible"
       id="Dot"
       refX="0"
       refY="0"
       orient="auto"
       inkscape:stockid="Dot"
       markerWidth="5.6666665"
       markerHeight="5.6666665"
       viewBox="0 0 5.6666667 5.6666667"
       inkscape:isstock="true"
       inkscape:collect="always"
       preserveAspectRatio="xMidYMid">
      <path
         transform="scale(0.5)"
         style="fill:context-stroke;fill-rule:evenodd;stroke:context-stroke;stroke-width:1pt"
         d="M 5,0 C 5,2.76 2.76,5 0,5 -2.76,5 -5,2.76 -5,0 c 0,-2.76 2.3,-5 5,-5 2.76,0 5,2.24 5,5 z"
         id="Dot1"
         sodipodi:nodetypes="sssss" />
    </marker>
    <rect
       x="209"
       y="923"
       width="97"
       height="13"
       id="rect26220" />
    <marker
       style="overflow:visible"
       id="RoundedArrow"
       refX="0"
       refY="0"
       orient="auto-start-reverse"
       inkscape:stockid="RoundedArrow"
       markerWidth="6.1347523"
       markerHeight="5.9304953"
       viewBox="0 0 6.1347524 5.9304951"
       inkscape:isstock="true"
       inkscape:collect="always"
       preserveAspectRatio="xMidYMid">
      <path
         transform="scale(0.7)"
         d="m -0.21114562,-4.1055728 6.42229122,3.21114561 a 1,1 90 0 1 0,1.78885438 L -0.21114562,4.1055728 A 1.236068,1.236068 31.717474 0 1 -2,3 v -6 a 1.236068,1.236068 148.28253 0 1 1.78885438,-1.1055728 z"
         style="fill:context-stroke;fill-rule:evenodd;stroke:none"
         id="path1367" />
    </marker>
    <marker
       style="overflow:visible"
       id="Dot-7"
       refX="0"
       refY="0"
       orient="auto"
       inkscape:stockid="Dot"
       markerWidth="5.6666665"
       markerHeight="5.6666665"
       viewBox="0 0 5.6666667 5.6666667"
       inkscape:isstock="true"
       inkscape:collect="always"
       preserveAspectRatio="xMidYMid">
      <path
         transform="scale(0.5)"
         style="fill:context-stroke;fill-rule:evenodd;stroke:context-stroke;stroke-width:1pt"
         d="M 5,0 C 5,2.76 2.76,5 0,5 -2.76,5 -5,2.76 -5,0 c 0,-2.76 2.3,-5 5,-5 2.76,0 5,2.24 5,5 z"
         id="Dot1-0"
         sodipodi:nodetypes="sssss" />
    </marker>
    <marker
       style="overflow:visible"
       id="Dot-7-4"
       refX="0"
       refY="0"
       orient="auto"
       inkscape:stockid="Dot"
       markerWidth="5.6666665"
       markerHeight="5.6666665"
       viewBox="0 0 5.6666667 5.6666667"
       inkscape:isstock="true"
       inkscape:collect="always"
       preserveAspectRatio="xMidYMid">
      <path
         transform="scale(0.5)"
         style="fill:context-stroke;fill-rule:evenodd;stroke:context-stroke;stroke-width:1pt"
         d="M 5,0 C 5,2.76 2.76,5 0,5 -2.76,5 -5,2.76 -5,0 c 0,-2.76 2.3,-5 5,-5 2.76,0 5,2.24 5,5 z"
         id="Dot1-0-4"
         sodipodi:nodetypes="sssss" />
    </marker>
    <marker
       style="overflow:visible"
       id="Dot-6"
       refX="0"
       refY="0"
       orient="auto"
       inkscape:stockid="Dot"
       markerWidth="5.6666665"
       markerHeight="5.6666665"
       viewBox="0 0 5.6666667 5.6666667"
       inkscape:isstock="true"
       inkscape:collect="always"
       preserveAspectRatio="xMidYMid">
      <path
         transform="scale(0.5)"
         style="fill:context-stroke;fill-rule:evenodd;stroke:context-stroke;stroke-width:1pt"
         d="M 5,0 C 5,2.76 2.76,5 0,5 -2.76,5 -5,2.76 -5,0 c 0,-2.76 2.3,-5 5,-5 2.76,0 5,2.24 5,5 z"
         id="Dot1-01"
         sodipodi:nodetypes="sssss" />
    </marker>
    <marker
       style="overflow:visible"
       id="Dot-8"
       refX="0"
       refY="0"
       orient="auto"
       inkscape:stockid="Dot"
       markerWidth="5.6666665"
       markerHeight="5.6666665"
       viewBox="0 0 5.6666667 5.6666667"
       inkscape:isstock="true"
       inkscape:collect="always"
       preserveAspectRatio="xMidYMid">
      <path
         transform="scale(0.5)"
         style="fill:context-stroke;fill-rule:evenodd;stroke:context-stroke;stroke-width:1pt"
         d="M 5,0 C 5,2.76 2.76,5 0,5 -2.76,5 -5,2.76 -5,0 c 0,-2.76 2.3,-5 5,-5 2.76,0 5,2.24 5,5 z"
         id="Dot1-9"
         sodipodi:nodetypes="sssss" />
    </marker>
    <marker
       style="overflow:visible"
       id="Dot-8-5"
       refX="0"
       refY="0"
       orient="auto"
       inkscape:stockid="Dot"
       markerWidth="5.6666665"
       markerHeight="5.6666665"
       viewBox="0 0 5.6666667 5.6666667"
       inkscape:isstock="true"
       inkscape:collect="always"
       preserveAspectRatio="xMidYMid">
      <path
         transform="scale(0.5)"
         style="fill:context-stroke;fill-rule:evenodd;stroke:context-stroke;stroke-width:1pt"
         d="M 5,0 C 5,2.76 2.76,5 0,5 -2.76,5 -5,2.76 -5,0 c 0,-2.76 2.3,-5 5,-5 2.76,0 5,2.24 5,5 z"
         id="Dot1-9-7"
         sodipodi:nodetypes="sssss" />
    </marker>
  </defs>
  <g
     inkscape:label="Ebene 1"
     inkscape:groupmode="layer"
     id="layer1">
    <path
       style="fill:#2e487a;fill-opacity:1;stroke:#435984;stroke-width:0.265;stroke-linecap:square;stroke-dasharray:none;stroke-opacity:1;marker-start:url(#Dot)"
       d="m 72.760417,188.3206 0,-48.53484"
       id="path25913-1-0-16"
       sodipodi:nodetypes="cc" />
    <g
       id="g749"
       transform="matrix(2.1647733,0,0,2.1647733,-31.496263,-35.831145)">
      <path
         d="m 47.213064,107.16712 c 0.39026,-0.79693 0.805656,-1.49993 1.284287,-2.18969 -1.633272,-0.66914 -3.284537,-1.14195 -4.586552,-1.26789 a 5.0747083,5.0747083 0 0 0 -0.514614,-0.022 c -0.228071,-0.0111 -0.560388,0.0127 -1.073944,0.073 l -5.29e-4,-2.7e-4 -0.0024,5.3e-4 c -0.671248,0.14658 -1.713442,0.48048 -2.447661,0.85355 0.309563,0.18018 0.620448,0.35983 0.882915,0.49556 1.042458,0.53922 2.337329,0.78793 3.509169,1.08797 0.0024,0 0.0048,-2.7e-4 0.0071,-2.7e-4 0.345017,0.0886 0.680509,0.18124 0.993775,0.28814 l 1.512888,0.52413 -0.0021,-0.002 0.43815,0.15955 z"
         fill="#f0fde7"
         id="path188801"
         style="fill:#a2ece2;fill-opacity:1;stroke-width:0.264583" />
      <path
         d="m 48.673564,105.05468 -0.173831,-0.0762 c -0.478632,0.68977 -0.894027,1.39277 -1.284288,2.1897 l 1.160463,0.49344 c 0.135996,-0.70008 0.287602,-1.62586 0.297391,-2.60694 z"
         class="K"
         id="path188803"
         style="fill:#a2ece2;fill-opacity:1;stroke-width:0.264583" />
      <path
         d="m 44.257933,106.19663 c -1.166019,-0.29872 -2.454275,-0.5461 -3.491706,-1.08268 -0.26088,-0.13494 -0.570177,-0.3138 -0.878417,-0.49292 -0.561446,0.28522 -1.135063,0.63474 -1.715823,1.06918 -0.04498,0.0336 -0.08546,0.0714 -0.129646,0.10584 0.109802,-0.0603 0.219075,-0.10187 0.341577,-0.12886 0.699559,-0.15504 1.196446,-0.18282 2.086769,-0.11535 0.842698,0.064 1.363398,0.10768 1.896004,0.21484 0.532606,0.10715 1.077383,0.27807 1.649677,0.40507 a 1.0662708,1.0662708 0 0 0 0.241565,0.0249 z"
         fill="#e7e0cc"
         id="path188817"
         style="fill:#2e487a;fill-opacity:1;stroke-width:0.264583" />
      <path
         d="m 54.978849,111.96428 1.744927,-0.79957 -0.0013,-0.001 0.8509,-0.40561 -2.268802,-1.6256 -2.404533,-1.75895 c -0.607483,-0.44661 -1.306512,-0.88 -2.051844,-1.28429 -0.48895,0.68898 -0.936889,1.40627 -1.3335,2.1463 1.265502,0.71041 2.660915,1.71318 3.891227,2.61224 l 1.572684,1.11654 z"
         fill="#edfdea"
         id="path188823"
         style="fill:#d25f7b;fill-opacity:1;stroke-width:0.264583" />
      <path
         d="m 57.575206,110.75857 -0.85143,0.40561 c 2.517101,2.12196 2.570983,1.86643 -0.02114,-0.01 l -1.753659,0.80354 c 0.968111,0.67257 1.9558,1.33217 2.786592,1.84388 0.567002,0.34925 1.312598,0.71861 1.984375,1.03505 h 6.417469 l 2.64e-4,-0.2077 c -2.226998,-0.27411 -4.783402,-1.42743 -6.418791,-2.43734 -0.05027,-0.0317 -0.103717,-0.0696 -0.154517,-0.1016 -0.645054,-0.40878 -1.310746,-0.85937 -1.989137,-1.33165 z"
         class="I"
         id="path188825"
         style="fill:#435984;fill-opacity:1;stroke-width:0.264583"
         sodipodi:nodetypes="ccccsccccccc" />
      <path
         d="m 48.61562,104.81206 -0.117739,0.16589 0.173831,0.0762 0.0016,-0.0392 -0.05741,-0.20294 z"
         class="F G"
         id="path188859"
         style="opacity:0.317;fill:#2e487a;stroke-width:0.264583" />
      <path
         d="m 50.846322,106.08841 c -0.69506,-0.37677 -1.431925,-0.72337 -2.174875,-1.03426 -0.01005,0.98108 -0.16166,1.90686 -0.297391,2.60694 l 0.690298,0.32994 0.448733,0.24368 c 0.39661,-0.74004 0.84455,-1.45732 1.3335,-2.1463 z"
         class="K"
         id="path188861"
         style="fill:#a2ece2;fill-opacity:1;stroke-width:0.264583" />
      <path
         d="m 77.254494,111.95192 -1.744927,-0.79957 0.0013,-0.001 -0.8509,-0.4056 2.268802,-1.6256 2.404533,-1.75895 c 0.607483,-0.44662 1.306512,-0.88001 2.051844,-1.28429 0.48895,0.68897 0.936889,1.40626 1.3335,2.1463 -1.265502,0.7104 -2.660915,1.71318 -3.891227,2.61223 l -1.572684,1.11654 z"
         fill="#fcd9d5"
         id="path188737"
         style="fill:#ff979c;fill-opacity:1;stroke-width:0.264583" />
      <path
         d="m 74.658138,110.74621 -1.988609,1.33245 -0.155046,0.1008 c -2.101585,1.32213 -4.556389,2.20927 -5.550693,2.33363 l -0.79719,0.10239 -0.07064,0.20929 h 6.417469 c 0.671777,-0.31644 1.417373,-0.6858 1.984375,-1.03505 0.830792,-0.51171 1.818481,-1.17158 2.786592,-1.84415 -0.560123,-0.23971 -0.689339,-0.28866 -1.49964,-0.67451 -0.810301,-0.38585 -0.842881,-0.38954 -1.126618,-0.52485 z"
         class="I"
         id="path188739"
         style="fill:#435984;fill-opacity:1;stroke-width:0.264583"
         sodipodi:nodetypes="cccccccsczc" />
    </g>
    <path
       d="m 70.709318,229.25182 c 0.844824,1.72517 1.744062,3.24701 2.78019,4.74018 -3.535664,1.44854 -7.110278,2.47206 -9.928845,2.7447 a 10.985593,10.985593 0 0 1 -1.114023,0.0476 c -0.493722,0.024 -1.213113,-0.0275 -2.324845,-0.15803 l -0.0011,5.9e-4 -0.0052,-0.001 c -1.4531,-0.31731 -3.709213,-1.04013 -5.298631,-1.84774 0.670134,-0.39005 1.343129,-0.77895 1.911311,-1.07278 2.256685,-1.16729 5.059787,-1.70569 7.596555,-2.35521 0.0052,0 0.01039,5.9e-4 0.01537,5.9e-4 0.746884,-0.1918 1.473148,-0.39235 2.151298,-0.62376 l 3.275059,-1.13462 -0.0045,0.004 0.948496,-0.34539 z"
       fill="#f0fde7"
       id="path188801-9"
       style="fill:#55aab6;fill-opacity:1;stroke-width:0.572762" />
    <path
       d="m 73.870969,233.82477 -0.376305,0.16496 c -1.036129,-1.4932 -1.935365,-3.01503 -2.780192,-4.74021 l 2.512139,-1.06818 c 0.294401,1.51551 0.622594,3.51962 0.643785,5.64343 z"
       class="K"
       id="path188803-2"
       style="fill:#55aab6;fill-opacity:1;stroke-width:0.572762" />
    <path
       d="m 64.312129,231.35271 c -2.524167,0.64666 -5.312949,1.18218 -7.558752,2.34376 -0.564746,0.29211 -1.234304,0.6793 -1.901574,1.06706 -1.215403,-0.61744 -2.457154,-1.37407 -3.714367,-2.31454 -0.09737,-0.0727 -0.185002,-0.15456 -0.280655,-0.22912 0.237697,0.13054 0.474248,0.22053 0.739437,0.27896 1.514387,0.33562 2.590035,0.39576 4.517382,0.2497 1.82425,-0.13854 2.951448,-0.2331 4.104419,-0.46508 1.152971,-0.23195 2.33229,-0.60196 3.571177,-0.87688 a 2.3082346,2.3082346 0 0 1 0.522933,-0.0539 z"
       fill="#e7e0cc"
       id="path188817-5"
       style="fill:#7cb1c4;fill-opacity:1;stroke-width:0.572762" />
    <path
       d="m 87.520482,218.86705 3.777365,1.73089 -0.0022,0.002 1.842006,0.87805 -4.911436,3.51906 -5.205269,3.80772 c -1.315063,0.96681 -2.828302,1.905 -4.441777,2.7802 -1.058466,-1.49148 -2.028152,-3.04425 -2.886725,-4.64625 2.739525,-1.53788 5.760278,-3.70865 8.423624,-5.65491 l 3.404505,-2.41706 z"
       fill="#edfdea"
       id="path188823-8"
       style="fill:#55aab6;fill-opacity:1;stroke-width:0.572762" />
    <path
       d="m 93.141,221.47714 -1.843153,-0.87805 c 5.448972,-4.59358 5.565589,-4.04038 -0.04568,0.0217 l -3.796266,-1.73948 c 2.09575,-1.45597 4.233853,-2.88385 6.032347,-3.99159 1.227426,-0.75604 2.841481,-1.55562 4.295711,-2.24065 h 13.892371 l 5.6e-4,0.44963 c -4.82093,0.59338 -10.35497,3.09006 -13.895226,5.27629 -0.108888,0.0686 -0.224508,0.15066 -0.334479,0.21994 -1.396408,0.88491 -2.837476,1.86034 -4.306037,2.88272 z"
       class="I"
       id="path188825-5"
       style="fill:#435984;fill-opacity:1;stroke-width:0.572762"
       sodipodi:nodetypes="ccccsccccccc" />
    <path
       d="m 78.574498,231.58698 c -1.504648,0.81562 -3.099793,1.56593 -4.708112,2.23894 -0.02176,-2.12382 -0.349957,-4.12792 -0.643784,-5.64343 l 1.494339,-0.71425 0.971405,-0.52751 c 0.858571,1.60202 1.828259,3.15477 2.886725,4.64625 z"
       class="K"
       id="path188861-0"
       style="fill:#55aab6;fill-opacity:1;stroke-width:0.572762" />
    <path
       d="m 130.12167,221.5039 -4.30487,-2.88445 -0.33565,-0.21821 c -4.54946,-2.86211 -9.86355,-4.78257 -12.01598,-5.05178 l -1.72574,-0.22165 -0.15283,-0.45307 h 13.89237 c 1.45423,0.68502 3.06828,1.4846 4.29571,2.24065 1.79847,1.10774 3.9366,2.53621 6.03233,3.99217 -1.21253,0.51892 -0.28213,0.10953 -3.17275,1.42195 -2.8906,1.31246 -2.51259,1.17439 -2.51259,1.17439 z"
       class="I"
       id="path188739-7"
       style="fill:#435984;fill-opacity:1;stroke-width:0.572762"
       sodipodi:nodetypes="cccccccsczc" />
    <path
       d="m 156.62754,189.41588 c 0.6461,-0.11907 1.26653,-0.20869 1.85409,-0.26545 0.37028,-0.0346 0.74211,-0.0506 1.11401,-0.0476 0.49372,-0.024 1.21312,0.0275 2.32486,0.15803 l 0.002,-5.9e-4 0.006,0.001 c 1.45308,0.31731 3.70921,1.04013 5.29863,1.84774 l -1.91133,1.07278 c -1.88774,0.97644 -4.15783,1.51283 -6.33456,2.04231 -0.42542,0.10347 -0.84727,0.20673 -1.26199,0.31289 m -2.16647,0.62316 -3.27504,1.13464 0.004,-0.004 -0.94932,0.34472 c -0.84482,-1.72517 -1.74405,-3.24701 -2.78017,-4.74021 1.64512,-0.67398 3.29868,-1.25595 4.88061,-1.71311"
       fill="#febfc1"
       id="path188719"
       style="fill:#d25f7b;fill-opacity:1;stroke-width:0.572762"
       sodipodi:nodetypes="ccccccccsccccccc" />
    <path
       d="m 150.76428,228.93548 c -0.84483,1.72517 -1.74407,3.24699 -2.7802,4.74018 3.85068,1.6152 7.2781,2.82603 10.90883,2.81284 0.49372,0.024 0.86613,0.0717 4.05417,-0.17816 3.18804,-0.24983 3.15408,-0.71933 4.74062,-2.08879 0,0 -8.25582,-2.48905 -10.53654,-3.18743 -2.28072,-0.69838 -1.84601,-0.51465 -2.16644,-0.62315 -0.32043,-0.10846 -3.27506,-1.13465 -3.27506,-1.13465 l 0.004,0.004 -0.9485,-0.34536 z"
       fill="#d89bd2"
       id="path188549"
       style="fill:#93688d;fill-opacity:1;stroke-width:0.572762"
       sodipodi:nodetypes="ccczczzcccc" />
    <path
       d="m 137.28081,220.25513 -3.77737,1.73091 0.002,0.002 -1.842,0.87806 4.91143,3.51905 5.20527,3.80773 c 1.31507,0.96683 2.82829,1.905 4.44179,2.7802 1.05846,-1.49149 2.02815,-3.04424 2.88672,-4.64626 -2.73954,-1.53787 -5.76029,-3.70864 -8.42363,-5.65488 l -3.4045,-2.41708 z"
       fill="#f2b3e4"
       id="path188561"
       style="fill:#93688d;fill-opacity:1;stroke-width:0.572762" />
    <path
       style="fill:#2e487a;fill-opacity:1;stroke:#435984;stroke-width:0.264583;stroke-linecap:square;stroke-opacity:1;marker-end:url(#RoundedArrow)"
       d="m 50.287902,280.74803 h 28.94907 v 0"
       id="path25913"
       sodipodi:nodetypes="ccc" />
    <text
       xml:space="preserve"
       transform="scale(0.26458333)"
       id="text26218"
       style="white-space:pre;shape-inside:url(#rect26220);display:inline;fill:#2e487a;fill-opacity:1;stroke:#435984;stroke-linecap:square;stroke-opacity:1"><tspan
         x="209"
         y="946.9185"
         id="tspan44855"><tspan
           dx="0 6.864006 6.7679901 3.095993"
           id="tspan44853">Zeit</tspan></tspan></text>
    <text
       xml:space="preserve"
       style="font-size:3.175px;letter-spacing:0.132292px;fill:#2e7a2f;fill-opacity:1;stroke:#435984;stroke-width:0.264583;stroke-linecap:square;stroke-opacity:1"
       x="51.85833"
       y="278.73877"
       id="text26338"><tspan
         sodipodi:role="line"
         id="tspan26336"
         style="font-style:normal;font-variant:normal;font-weight:300;font-stretch:normal;font-family:Calibri;-inkscape-font-specification:'Calibri Light';fill:#000000;fill-opacity:1;stroke:#000000;stroke-width:0.264583;stroke-opacity:1"
         x="51.85833"
         y="278.73877">Projekt-Fortschritt</tspan></text>
    <text
       xml:space="preserve"
       style="font-size:3.175px;letter-spacing:0.132292px;fill:#2e7a2f;fill-opacity:1;stroke:#435984;stroke-width:0.264583;stroke-linecap:square;stroke-opacity:1"
       x="50.619133"
       y="221.72472"
       id="text26338-0"><tspan
         sodipodi:role="line"
         id="tspan26336-4"
         style="font-style:italic;font-variant:normal;font-weight:normal;font-stretch:normal;font-family:Calibri;-inkscape-font-specification:'Calibri Italic';fill:#000000;fill-opacity:1;stroke:#000000;stroke-width:0.264583;stroke-opacity:1"
         x="50.619133"
         y="221.72472">Logic + Databinding</tspan><tspan
         sodipodi:role="line"
         style="font-style:italic;font-variant:normal;font-weight:normal;font-stretch:normal;font-family:Calibri;-inkscape-font-specification:'Calibri Italic';fill:#000000;fill-opacity:1;stroke:#000000;stroke-width:0.264583;stroke-opacity:1"
         x="50.619133"
         y="225.8042"
         id="tspan29613" /></text>
    <text
       xml:space="preserve"
       style="font-size:3.175px;letter-spacing:0.132292px;fill:#2e7a2f;fill-opacity:1;stroke:#435984;stroke-width:0.264583;stroke-linecap:square;stroke-opacity:1"
       x="50.421211"
       y="207.96638"
       id="text26338-0-3"><tspan
         sodipodi:role="line"
         style="font-style:italic;font-variant:normal;font-weight:normal;font-stretch:normal;font-family:Calibri;-inkscape-font-specification:'Calibri Italic';fill:#000000;fill-opacity:1;stroke:#000000;stroke-width:0.264583;stroke-opacity:1"
         x="50.421211"
         y="207.96638"
         id="tspan29613-6">CSS + View Components</tspan></text>
    <path
       style="fill:#2e487a;fill-opacity:1;stroke:#435984;stroke-width:0.265;stroke-linecap:square;stroke-dasharray:none;stroke-opacity:1;marker-end:url(#Dot)"
       d="m 109.66995,221.42769 0,-6.13536"
       id="path25913-1"
       sodipodi:nodetypes="cc" />
    <text
       xml:space="preserve"
       style="font-size:3.175px;letter-spacing:0.132292px;fill:#2e7a2f;fill-opacity:1;stroke:#435984;stroke-width:0.264583;stroke-linecap:square;stroke-opacity:1"
       x="109.04613"
       y="225.8653"
       id="text26338-1"><tspan
         sodipodi:role="line"
         id="tspan26336-41"
         style="font-style:italic;font-variant:normal;font-weight:normal;font-stretch:normal;font-family:Calibri;-inkscape-font-specification:'Calibri Italic';fill:#000000;fill-opacity:1;stroke:#000000;stroke-width:0.264583;stroke-opacity:1"
         x="109.04613"
         y="225.8653">Integration /</tspan><tspan
         sodipodi:role="line"
         style="font-style:italic;font-variant:normal;font-weight:normal;font-stretch:normal;font-family:Calibri;-inkscape-font-specification:'Calibri Italic';fill:#000000;fill-opacity:1;stroke:#000000;stroke-width:0.264583;stroke-opacity:1"
         x="109.04613"
         y="229.94478"
         id="tspan34935">Testing Phase</tspan></text>
    <text
       xml:space="preserve"
       style="font-size:3.175px;letter-spacing:0.132292px;fill:#2e7a2f;fill-opacity:1;stroke:#435984;stroke-width:0.264583;stroke-linecap:square;stroke-opacity:1"
       x="146.40765"
       y="211.64655"
       id="text26338-0-4"><tspan
         sodipodi:role="line"
         id="tspan26336-4-8"
         style="font-style:italic;font-variant:normal;font-weight:normal;font-stretch:normal;font-family:Calibri;-inkscape-font-specification:'Calibri Italic';fill:#000000;fill-opacity:1;stroke:#000000;stroke-width:0.264583;stroke-opacity:1"
         x="146.40765"
         y="211.64655">Bugfixing &amp;</tspan><tspan
         sodipodi:role="line"
         style="font-style:italic;font-variant:normal;font-weight:normal;font-stretch:normal;font-family:Calibri;-inkscape-font-specification:'Calibri Italic';fill:#000000;fill-opacity:1;stroke:#000000;stroke-width:0.264583;stroke-opacity:1"
         x="146.40765"
         y="215.72603"
         id="tspan29942">Finale Abnahme</tspan><tspan
         sodipodi:role="line"
         style="font-style:italic;font-variant:normal;font-weight:normal;font-stretch:normal;font-family:Calibri;-inkscape-font-specification:'Calibri Italic';fill:#000000;fill-opacity:1;stroke:#000000;stroke-width:0.264583;stroke-opacity:1"
         x="146.40765"
         y="219.8055"
         id="tspan29613-2" /></text>
    <path
       style="fill:#2e487a;fill-opacity:1;stroke:#435984;stroke-width:0.265;stroke-linecap:square;stroke-dasharray:none;stroke-opacity:1;marker-start:url(#Arrow1);marker-end:url(#Arrow3)"
       d="m 64.171413,217.2967 v -6.07117"
       id="path25913-1-6"
       sodipodi:nodetypes="cc" />
    <text
       xml:space="preserve"
       style="font-style:normal;font-variant:normal;font-weight:300;font-stretch:normal;font-size:3.175px;font-family:Calibri;-inkscape-font-specification:'Calibri Light';fill:#000000;fill-opacity:1;stroke:#000000;stroke-width:0.264999;stroke-linecap:square;stroke-dasharray:none;stroke-opacity:1"
       x="100.0125"
       y="241.29999"
       id="text36487"><tspan
         sodipodi:role="line"
         id="tspan36485"
         style="stroke-width:0.265"
         x="100.0125"
         y="241.29999"><tspan
   style="font-style:normal;font-variant:normal;font-weight:bold;font-stretch:normal;font-family:Calibri;-inkscape-font-specification:'Calibri Bold'"
   id="tspan36503">Featurecomplete</tspan> (ohne Style)</tspan><tspan
         sodipodi:role="line"
         style="stroke-width:0.265"
         x="100.0125"
         y="245.26874"
         id="tspan36489">- Alle Features funktionieren</tspan><tspan
         sodipodi:role="line"
         style="stroke-width:0.265"
         x="100.0125"
         y="249.23749"
         id="tspan36491">- Formulare sind vollständig</tspan><tspan
         sodipodi:role="line"
         style="stroke-width:0.265"
         x="100.0125"
         y="253.20622"
         id="tspan36493">- Validierung ist getestet</tspan><tspan
         sodipodi:role="line"
         style="stroke-width:0.265"
         x="100.0125"
         y="257.17499"
         id="tspan36495">- Alle Workflows funktionieren</tspan><tspan
         sodipodi:role="line"
         style="stroke-width:0.265"
         x="100.0125"
         y="261.14374"
         id="tspan36497">- Error Anzeigen alle getestet</tspan><tspan
         sodipodi:role="line"
         style="stroke-width:0.265"
         x="100.0125"
         y="265.11249"
         id="tspan36499">- Dialoge alle vollständig</tspan><tspan
         sodipodi:role="line"
         style="stroke-width:0.265"
         x="100.0125"
         y="269.08124"
         id="tspan36501">- Filter funktionieren alle</tspan></text>
    <path
       style="fill:#2e487a;fill-opacity:1;stroke:#435984;stroke-width:0.265;stroke-linecap:square;stroke-dasharray:none;stroke-opacity:1;marker-end:url(#Dot-7)"
       d="m 101.07084,235.9456 0,-16.7187"
       id="path25913-1-0"
       sodipodi:nodetypes="cc" />
    <text
       xml:space="preserve"
       style="font-style:normal;font-variant:normal;font-weight:bold;font-stretch:normal;font-size:3.175px;font-family:Calibri;-inkscape-font-specification:'Calibri Bold';fill:#000000;fill-opacity:1;stroke:#000000;stroke-width:0.264999;stroke-linecap:square;stroke-dasharray:none;stroke-opacity:1"
       x="51.593742"
       y="248.44374"
       id="text37401"><tspan
         sodipodi:role="line"
         id="tspan37399"
         style="stroke-width:0.265"
         x="51.593742"
         y="248.44374">Daten binden</tspan><tspan
         sodipodi:role="line"
         style="font-style:normal;font-variant:normal;font-weight:300;font-stretch:normal;font-family:Calibri;-inkscape-font-specification:'Calibri Light';stroke-width:0.265"
         x="51.593742"
         y="252.41249"
         id="tspan37403">- Alle GET's in Services</tspan><tspan
         sodipodi:role="line"
         style="font-style:normal;font-variant:normal;font-weight:300;font-stretch:normal;font-family:Calibri;-inkscape-font-specification:'Calibri Light';stroke-width:0.265"
         x="51.593742"
         y="256.38123"
         id="tspan37405">- Kunde hat Testjobs erstellt</tspan><tspan
         sodipodi:role="line"
         style="font-style:normal;font-variant:normal;font-weight:300;font-stretch:normal;font-family:Calibri;-inkscape-font-specification:'Calibri Light';stroke-width:0.265"
         x="51.593742"
         y="260.34998"
         id="tspan37407">- Anzahl der Datensätze stimmt</tspan><tspan
         sodipodi:role="line"
         style="font-style:normal;font-variant:normal;font-weight:300;font-stretch:normal;font-family:Calibri;-inkscape-font-specification:'Calibri Light';stroke-width:0.265"
         x="51.593742"
         y="264.31873"
         id="tspan37409">- Login funktioniert</tspan><tspan
         sodipodi:role="line"
         style="font-style:normal;font-variant:normal;font-weight:300;font-stretch:normal;font-family:Calibri;-inkscape-font-specification:'Calibri Light';stroke-width:0.265"
         x="51.593742"
         y="268.28748"
         id="tspan37411">- Kunde nimmt alle Emails ab</tspan></text>
    <path
       style="fill:#2e487a;fill-opacity:1;stroke:#435984;stroke-width:0.265;stroke-linecap:square;stroke-dasharray:none;stroke-opacity:1;marker-end:url(#Dot-7-4)"
       d="M 71.702083,248.11643 V 237.21856"
       id="path25913-1-0-1"
       sodipodi:nodetypes="cc" />
    <text
       xml:space="preserve"
       style="font-style:italic;font-variant:normal;font-weight:normal;font-stretch:normal;font-size:3.175px;font-family:Calibri;-inkscape-font-specification:'Calibri Italic';fill:#000000;fill-opacity:1;stroke:#000000;stroke-width:0.264999;stroke-linecap:square;stroke-dasharray:none;stroke-opacity:1"
       x="96.51651"
       y="185.73746"
       id="text38333"><tspan
         sodipodi:role="line"
         id="tspan38331"
         style="font-style:normal;font-variant:normal;font-weight:bold;font-stretch:normal;font-family:Calibri;-inkscape-font-specification:'Calibri Bold';stroke-width:0.265"
         x="96.51651"
         y="185.73746">Sprache binden</tspan><tspan
         sodipodi:role="line"
         style="font-style:normal;font-variant:normal;font-weight:300;font-stretch:normal;font-family:Calibri;-inkscape-font-specification:'Calibri Light';stroke-width:0.265"
         x="96.51651"
         y="189.70621"
         id="tspan38335">- Workbook vollständig an Kunde</tspan><tspan
         sodipodi:role="line"
         style="font-style:normal;font-variant:normal;font-weight:300;font-stretch:normal;font-family:Calibri;-inkscape-font-specification:'Calibri Light';stroke-width:0.265"
         x="96.51651"
         y="193.67496"
         id="tspan43684">- Keinen Text in Page Components</tspan><tspan
         sodipodi:role="line"
         style="font-style:normal;font-variant:normal;font-weight:300;font-stretch:normal;font-family:Calibri;-inkscape-font-specification:'Calibri Light';stroke-width:0.265"
         x="96.51651"
         y="197.64371"
         id="tspan38337">- JSON erstellen</tspan><tspan
         sodipodi:role="line"
         style="font-style:normal;font-variant:normal;font-weight:300;font-stretch:normal;font-family:Calibri;-inkscape-font-specification:'Calibri Light';stroke-width:0.265"
         x="96.51651"
         y="201.61246"
         id="tspan38339" /><tspan
         sodipodi:role="line"
         style="font-style:normal;font-variant:normal;font-weight:300;font-stretch:normal;font-family:Calibri;-inkscape-font-specification:'Calibri Light';stroke-width:0.265"
         x="96.51651"
         y="205.58121"
         id="tspan38341" /></text>
    <text
       xml:space="preserve"
       style="font-style:italic;font-variant:normal;font-weight:normal;font-stretch:normal;font-size:3.175px;font-family:Calibri;-inkscape-font-specification:'Calibri Italic';fill:#000000;fill-opacity:1;stroke:#000000;stroke-width:0.264999;stroke-linecap:square;stroke-dasharray:none;stroke-opacity:1"
       x="43.343056"
       y="118.43023"
       id="text40739"><tspan
         sodipodi:role="line"
         id="tspan40737"
         style="font-style:normal;font-variant:normal;font-weight:bold;font-stretch:normal;font-family:Calibri;-inkscape-font-specification:'Calibri Bold';stroke-width:0.265"
         x="43.343056"
         y="118.43023">HTML Protoyp</tspan><tspan
         sodipodi:role="line"
         style="font-style:normal;font-variant:normal;font-weight:300;font-stretch:normal;font-family:Calibri;-inkscape-font-specification:'Calibri Light';stroke-width:0.265"
         x="43.343056"
         y="122.39898"
         id="tspan40741">- Inhalt wie im Design</tspan><tspan
         sodipodi:role="line"
         style="font-style:normal;font-variant:normal;font-weight:300;font-stretch:normal;font-family:Calibri;-inkscape-font-specification:'Calibri Light';stroke-width:0.265"
         x="43.343056"
         y="126.36773"
         id="tspan40743">- Alle Komponenten wie im Design</tspan><tspan
         sodipodi:role="line"
         style="font-style:normal;font-variant:normal;font-weight:300;font-stretch:normal;font-family:Calibri;-inkscape-font-specification:'Calibri Light';stroke-width:0.265"
         x="43.343056"
         y="130.33647"
         id="tspan40745">- Alle Images &amp; Breakpoints</tspan><tspan
         sodipodi:role="line"
         style="font-style:normal;font-variant:normal;font-weight:300;font-stretch:normal;font-family:Calibri;-inkscape-font-specification:'Calibri Light';stroke-width:0.265"
         x="43.343056"
         y="134.30522"
         id="tspan40747">- View Components erstellt</tspan><tspan
         sodipodi:role="line"
         style="font-style:normal;font-variant:normal;font-weight:300;font-stretch:normal;font-family:Calibri;-inkscape-font-specification:'Calibri Light';stroke-width:0.265"
         x="43.343056"
         y="138.27397"
         id="tspan40749">- Keinen Text in View Components</tspan><tspan
         sodipodi:role="line"
         style="font-style:normal;font-variant:normal;font-weight:300;font-stretch:normal;font-family:Calibri;-inkscape-font-specification:'Calibri Light';stroke-width:0.265"
         x="43.343056"
         y="142.24272"
         id="tspan40761" /></text>
    <text
       xml:space="preserve"
       style="font-style:normal;font-variant:normal;font-weight:bold;font-stretch:normal;font-size:3.175px;font-family:Calibri;-inkscape-font-specification:'Calibri Bold';fill:#000000;fill-opacity:1;stroke:#000000;stroke-width:0.264999;stroke-linecap:square;stroke-dasharray:none;stroke-opacity:1"
       x="91.281242"
       y="151.0771"
       id="text41563"><tspan
         sodipodi:role="line"
         id="tspan41561"
         style="stroke-width:0.265"
         x="91.281242"
         y="151.0771">Design Change-Requests</tspan><tspan
         sodipodi:role="line"
         style="font-style:normal;font-variant:normal;font-weight:300;font-stretch:normal;font-family:Calibri;-inkscape-font-specification:'Calibri Light';stroke-width:0.265"
         x="91.281242"
         y="155.04585"
         id="tspan41565">- Zusatzabsprachen &amp; CRs jetzt umgesetzt </tspan><tspan
         sodipodi:role="line"
         style="font-style:normal;font-variant:normal;font-weight:300;font-stretch:normal;font-family:Calibri;-inkscape-font-specification:'Calibri Light';stroke-width:0.265"
         x="91.281242"
         y="159.0146"
         id="tspan41567">- Ersten Seiten Content eigepflegt</tspan><tspan
         sodipodi:role="line"
         style="font-style:normal;font-variant:normal;font-weight:300;font-stretch:normal;font-family:Calibri;-inkscape-font-specification:'Calibri Light';stroke-width:0.265"
         x="91.281242"
         y="162.98335"
         id="tspan41569">- Langen Content / Translations getestet</tspan><tspan
         sodipodi:role="line"
         style="font-style:normal;font-variant:normal;font-weight:300;font-stretch:normal;font-family:Calibri;-inkscape-font-specification:'Calibri Light';stroke-width:0.265"
         x="91.281242"
         y="166.9521"
         id="tspan41571">- Jede Seite existiert</tspan><tspan
         sodipodi:role="line"
         style="font-style:normal;font-variant:normal;font-weight:300;font-stretch:normal;font-family:Calibri;-inkscape-font-specification:'Calibri Light';stroke-width:0.265"
         x="91.281242"
         y="170.92085"
         id="tspan41573">- Jede Navigation funktioniert</tspan><tspan
         sodipodi:role="line"
         style="font-style:normal;font-variant:normal;font-weight:300;font-stretch:normal;font-family:Calibri;-inkscape-font-specification:'Calibri Light';stroke-width:0.265"
         x="91.281242"
         y="174.8896"
         id="tspan41575">- Jedes Feature irgendwie abgebildet</tspan><tspan
         sodipodi:role="line"
         style="font-style:normal;font-variant:normal;font-weight:300;font-stretch:normal;font-family:Calibri;-inkscape-font-specification:'Calibri Light';stroke-width:0.265"
         x="91.281242"
         y="178.85835"
         id="tspan41577">- Alle Animationen vorhanden</tspan></text>
    <rect
       style="fill:#ffffff;fill-opacity:1;stroke:none;stroke-width:0.256185;stroke-linecap:square;stroke-dasharray:none;stroke-opacity:1"
       id="rect42751"
       width="6.0854168"
       height="26.458334"
       x="70.643753"
       y="155.575" />
    <text
       xml:space="preserve"
       style="font-style:normal;font-variant:normal;font-weight:300;font-stretch:normal;font-size:3.175px;font-family:Calibri;-inkscape-font-specification:'Calibri Light';fill:#000000;fill-opacity:1;stroke:#000000;stroke-width:0.264999;stroke-linecap:square;stroke-dasharray:none;stroke-opacity:1"
       x="43.65625"
       y="155.04584"
       id="text42379"><tspan
         sodipodi:role="line"
         id="tspan42377"
         style="font-style:normal;font-variant:normal;font-weight:bold;font-stretch:normal;font-family:Calibri;-inkscape-font-specification:'Calibri Bold';stroke-width:0.265"
         x="43.65625"
         y="155.04584">Design überprüfen</tspan><tspan
         sodipodi:role="line"
         style="stroke-width:0.265"
         x="43.65625"
         y="159.01459"
         id="tspan42381">- Ist jede Komponente abgebildet</tspan><tspan
         sodipodi:role="line"
         style="stroke-width:0.265"
         x="43.65625"
         y="162.98334"
         id="tspan42383">- Breakpoints dargestellt</tspan><tspan
         sodipodi:role="line"
         style="stroke-width:0.265"
         x="43.65625"
         y="166.95209"
         id="tspan42385">- Final mit Steakholdern geklärt</tspan><tspan
         sodipodi:role="line"
         style="stroke-width:0.265"
         x="43.65625"
         y="170.92084"
         id="tspan42387">- Sitemap vorhanden?</tspan><tspan
         sodipodi:role="line"
         style="stroke-width:0.265"
         x="43.65625"
         y="174.88959"
         id="tspan42389">- Xd etc. in Bilder umwandeln</tspan><tspan
         sodipodi:role="line"
         style="stroke-width:0.265"
         x="43.65625"
         y="178.85834"
         id="tspan42391">- Sind Assets vollständig</tspan></text>
    <path
       style="fill:#2e487a;fill-opacity:1;stroke:#435984;stroke-width:0.265;stroke-linecap:square;stroke-dasharray:none;stroke-opacity:1;marker-start:url(#Dot-6)"
       d="m 53.445834,188.7606 0,-7.45828"
       id="path25913-1-0-16-1"
       sodipodi:nodetypes="cc" />
    <path
       style="fill:#2e487a;fill-opacity:1;stroke:#435984;stroke-width:0.265;stroke-linecap:square;stroke-dasharray:none;stroke-opacity:1;marker-start:url(#Dot-8)"
       d="M 89.958334,198.2856 V 149.28774"
       id="path25913-1-0-16-6"
       sodipodi:nodetypes="cc" />
    <path
       style="fill:#2e487a;fill-opacity:1;stroke:#435984;stroke-width:0.265;stroke-linecap:square;stroke-dasharray:none;stroke-opacity:1;marker-start:url(#Dot-8-5)"
       d="m 94.918156,203.07863 0,-19.06368"
       id="path25913-1-0-16-6-4"
       sodipodi:nodetypes="cc" />
    <text
       xml:space="preserve"
       style="font-style:normal;font-variant:normal;font-weight:300;font-stretch:normal;font-size:3.175px;font-family:Calibri;-inkscape-font-specification:'Calibri Light';fill:#ffffff;fill-opacity:1;stroke:none;stroke-width:0.264999;stroke-linecap:square;stroke-dasharray:none;stroke-opacity:1"
       x="91.325859"
       y="118.56102"
       id="text43868"><tspan
         sodipodi:role="line"
         id="tspan43866"
         style="stroke:#000000;stroke-width:0.265;stroke-opacity:1"
         x="91.325859"
         y="118.56102">- Page Components angefangen</tspan><tspan
         sodipodi:role="line"
         style="stroke:#000000;stroke-width:0.265;stroke-opacity:1"
         x="91.325859"
         y="122.52977"
         id="tspan43870">- Screenshoting Seiten / Bereiche</tspan><tspan
         sodipodi:role="line"
         style="stroke:#000000;stroke-width:0.265;stroke-opacity:1"
         x="91.325859"
         y="126.49852"
         id="tspan43872">- Handy / Browser getestet</tspan><tspan
         sodipodi:role="line"
         style="stroke:#000000;stroke-width:0.265;stroke-opacity:1"
         x="91.325859"
         y="130.46727"
         id="tspan43874">- Protoyp Seiten eingespielt</tspan><tspan
         sodipodi:role="line"
         style="stroke:#000000;stroke-width:0.265;stroke-opacity:1"
         x="91.325859"
         y="134.43602"
         id="tspan43876">- Kunde nimmt Protoyp ab</tspan><tspan
         sodipodi:role="line"
         style="stroke:#000000;stroke-width:0.265;stroke-opacity:1"
         x="91.325859"
         y="138.40477"
         id="tspan43878">- Jeder Button / Icon da?</tspan></text>
  </g>
</svg>
